<svg xmlns="http://www.w3.org/2000/svg" xmlns:xlink="http://www.w3.org/1999/xlink" width="500" zoomAndPan="magnify" viewBox="0 0 375 374.999991" height="500" preserveAspectRatio="xMidYMid meet" version="1.2"><defs><clipPath id="1a54fd620a"><path d="M 120 100 L 304.6875 100 L 304.6875 238 L 120 238 Z M 120 100 "/></clipPath><clipPath id="a73726f6cf"><path d="M 161 37.5 L 192 37.5 L 192 255 L 161 255 Z M 161 37.5 "/></clipPath></defs><g id="31a82c702b"><path style=" stroke:none;fill-rule:nonzero;fill:#c6bbac;fill-opacity:1;" d="M 169.109375 203.109375 C 168.785156 200.613281 170.542969 198.335938 173.039062 198.015625 C 175.523438 197.691406 177.804688 199.453125 178.128906 201.949219 C 178.449219 204.433594 176.6875 206.714844 174.195312 207.035156 C 171.699219 207.355469 169.421875 205.59375 169.109375 203.109375 "/><g clip-rule="nonzero" clip-path="url(#1a54fd620a)"><path style=" stroke:none;fill-rule:nonzero;fill:#c6bbac;fill-opacity:1;" d="M 159.519531 199.320312 C 154.253906 203 149.109375 206.164062 146.386719 207.792969 C 146.386719 207.792969 138.292969 215.011719 120.890625 214.300781 L 129.480469 226.335938 C 129.5 226.921875 133.453125 234.953125 133.402344 235.550781 L 135.242188 237.359375 C 138.714844 222.582031 150.226562 218.074219 150.226562 218.074219 C 155.683594 214.101562 162.078125 213.71875 162.078125 213.71875 C 162.078125 213.71875 171.277344 218.324219 179.945312 211.988281 C 186.980469 206.847656 188.054688 198.972656 192.761719 195.507812 C 206.929688 185.117188 304.316406 100.980469 304.316406 100.980469 C 304.316406 100.980469 185.738281 182.988281 159.519531 199.320312 "/></g><path style=" stroke:none;fill-rule:nonzero;fill:#c6bbac;fill-opacity:1;" d="M 117.238281 256.765625 C 105.621094 266.101562 90.878906 267.035156 84.304688 258.855469 C 77.734375 250.671875 81.828125 236.476562 93.445312 227.144531 C 105.0625 217.808594 119.8125 216.878906 126.382812 225.0625 C 132.949219 233.242188 128.859375 247.433594 117.238281 256.765625 Z M 131.765625 220.734375 C 123.511719 210.464844 104.996094 211.636719 90.402344 223.355469 C 75.8125 235.074219 70.671875 252.902344 78.921875 263.175781 C 87.175781 273.445312 105.695312 272.273438 120.28125 260.558594 C 134.875 248.835938 140.015625 231.007812 131.765625 220.734375 "/><g clip-rule="nonzero" clip-path="url(#a73726f6cf)"><path style=" stroke:none;fill-rule:nonzero;fill:#c6bbac;fill-opacity:1;" d="M 183.667969 212.519531 C 183.414062 218.933594 183.523438 224.972656 183.621094 228.144531 C 183.621094 228.144531 181.921875 238.859375 191.910156 253.121094 L 177.148438 252.390625 C 176.636719 252.6875 167.75 253.699219 167.269531 254.0625 L 164.757812 253.488281 C 175.316406 242.589844 172.898438 230.460938 172.898438 230.460938 C 173.292969 223.726562 170.164062 218.144531 170.164062 218.144531 C 170.164062 218.144531 161.320312 212.882812 161.972656 202.160156 C 162.496094 193.46875 168.550781 188.3125 168.921875 182.476562 C 170.019531 164.941406 188.25 37.539062 188.25 37.539062 C 188.25 37.539062 183.25 181.632812 183.667969 212.519531 "/></g><path style=" stroke:none;fill-rule:nonzero;fill:#c6bbac;fill-opacity:1;" d="M 179.890625 254.308594 C 190.328125 255.421875 197.5 268.332031 195.921875 283.148438 C 194.339844 297.96875 184.601562 309.082031 174.171875 307.96875 C 163.734375 306.855469 156.558594 293.941406 158.140625 279.121094 C 159.722656 264.300781 169.457031 253.191406 179.890625 254.308594 Z M 153.308594 278.609375 C 151.324219 297.214844 160.335938 313.433594 173.4375 314.835938 C 186.539062 316.230469 198.769531 302.277344 200.753906 283.667969 C 202.738281 265.058594 193.726562 248.84375 180.625 247.441406 C 167.527344 246.046875 155.296875 259.996094 153.308594 278.609375 "/><path style=" stroke:none;fill-rule:nonzero;fill:#582c4c;fill-opacity:1;" d="M 175.304688 206.488281 C 177.574219 205.417969 178.546875 202.707031 177.464844 200.4375 C 176.394531 198.164062 173.675781 197.195312 171.410156 198.273438 C 169.140625 199.34375 168.175781 202.058594 169.246094 204.332031 C 170.328125 206.605469 173.035156 207.570312 175.304688 206.488281 "/><path style=" stroke:none;fill-rule:nonzero;fill:#c6bbac;fill-opacity:1;" d="M 177.714844 334.523438 C 179.292969 335.386719 181.035156 336.144531 182.976562 336.757812 C 184.835938 337.34375 186.820312 336.320312 187.40625 334.464844 C 188 332.605469 186.972656 330.621094 185.117188 330.035156 C 170.484375 325.382812 171.648438 311.652344 171.710938 311.070312 C 171.898438 309.136719 170.480469 307.410156 168.542969 307.21875 C 166.601562 307.03125 164.878906 308.449219 164.6875 310.386719 C 164.09375 316.445312 166.308594 328.289062 177.714844 334.523438 "/><path style=" stroke:none;fill-rule:nonzero;fill:#c6bbac;fill-opacity:1;" d="M 176.976562 314.839844 C 176.976562 314.839844 171.488281 315.675781 172.710938 318.488281 C 173.9375 321.292969 167.164062 319.351562 167.164062 319.351562 L 164.808594 315.378906 C 164.808594 315.378906 164.773438 312.5 161.875 308.871094 C 158.976562 305.242188 162.496094 306.144531 163.164062 306.507812 C 163.828125 306.871094 178.171875 313.609375 176.976562 314.839844 "/></g></svg>