<svg xmlns="http://www.w3.org/2000/svg" xmlns:xlink="http://www.w3.org/1999/xlink" width="500" zoomAndPan="magnify" viewBox="0 0 375 374.999991" height="500" preserveAspectRatio="xMidYMid meet" version="1.2"><defs><clipPath id="b361a5e253"><path d="M 134.75 24.148438 L 240.5 24.148438 L 240.5 350.835938 L 134.75 350.835938 Z M 134.75 24.148438 "/></clipPath></defs><g id="4f2692e030"><g clip-rule="nonzero" clip-path="url(#b361a5e253)"><path style=" stroke:none;fill-rule:evenodd;fill:#c6bbac;fill-opacity:1;" d="M 233.449219 58.183594 L 226.640625 58.183594 L 226.640625 27.554688 C 226.640625 25.675781 225.117188 24.152344 223.238281 24.152344 C 221.359375 24.152344 219.835938 25.675781 219.835938 27.554688 L 219.835938 58.183594 L 213.03125 58.183594 L 213.03125 27.554688 C 213.03125 25.675781 211.507812 24.152344 209.628906 24.152344 C 207.75 24.152344 206.222656 25.675781 206.222656 27.554688 L 206.222656 58.183594 L 199.417969 58.183594 L 199.417969 27.554688 C 199.417969 25.675781 197.894531 24.152344 196.015625 24.152344 C 194.136719 24.152344 192.613281 25.675781 192.613281 27.554688 L 192.613281 58.183594 L 185.804688 58.183594 L 185.804688 27.554688 C 185.804688 25.675781 184.28125 24.152344 182.402344 24.152344 C 180.523438 24.152344 179 25.675781 179 27.554688 L 179 58.183594 L 172.195312 58.183594 L 172.195312 27.554688 C 172.195312 25.675781 170.671875 24.152344 168.792969 24.152344 C 166.914062 24.152344 165.386719 25.675781 165.386719 27.554688 L 165.386719 58.183594 L 158.582031 58.183594 L 158.582031 27.554688 C 158.582031 25.675781 157.058594 24.152344 155.179688 24.152344 C 153.300781 24.152344 151.777344 25.675781 151.777344 27.554688 L 151.777344 95.617188 C 151.777344 96.289062 151.972656 96.941406 152.347656 97.5 L 156.058594 103.066406 C 153.152344 108.300781 151.777344 113.132812 151.777344 116.035156 L 151.777344 123.042969 C 141.71875 124.253906 134.761719 130.871094 134.761719 139.855469 C 134.761719 139.855469 134.761719 167.078125 134.761719 167.078125 C 134.761719 168.957031 136.285156 170.480469 138.164062 170.480469 C 140.042969 170.480469 141.566406 168.957031 141.566406 167.078125 L 141.566406 139.855469 C 141.566406 134.464844 145.863281 130.898438 151.777344 129.917969 L 151.777344 184.09375 C 151.777344 187.515625 153.070312 191.980469 154.980469 196.535156 C 158.390625 204.621094 163.667969 213.058594 165.394531 215.742188 C 165.386719 215.726562 165.386719 327.019531 165.386719 327.019531 C 165.386719 328.898438 166.914062 330.421875 168.792969 330.421875 L 176.113281 330.421875 L 179.046875 347.996094 C 179.320312 349.632812 180.742188 350.839844 182.402344 350.839844 L 209.628906 350.839844 C 211.289062 350.839844 212.710938 349.632812 212.984375 347.996094 L 215.917969 330.421875 L 223.238281 330.421875 C 225.117188 330.421875 226.640625 328.898438 226.640625 327.019531 L 226.640625 215.726562 C 228.363281 213.058594 233.640625 204.621094 237.050781 196.535156 C 238.960938 191.980469 240.253906 187.515625 240.253906 184.09375 L 240.253906 116.035156 C 240.253906 113.132812 238.878906 108.300781 235.972656 103.066406 L 239.683594 97.5 C 240.058594 96.941406 240.253906 96.289062 240.253906 95.617188 L 240.253906 27.554688 C 240.253906 25.675781 238.730469 24.152344 236.851562 24.152344 C 234.972656 24.152344 233.449219 25.675781 233.449219 27.554688 Z M 209.015625 330.421875 L 183.015625 330.421875 L 185.289062 344.03125 C 185.289062 344.03125 206.742188 344.03125 206.742188 344.03125 Z M 219.835938 323.617188 L 172.195312 323.617188 C 172.195312 323.617188 172.195312 214.71875 172.195312 214.71875 C 172.195312 214.046875 171.996094 213.394531 171.621094 212.835938 C 171.621094 212.835938 166.851562 205.675781 163.035156 197.800781 C 160.671875 192.921875 158.582031 187.789062 158.582031 184.09375 L 158.582031 116.035156 C 158.582031 113.113281 160.664062 107.820312 164.488281 102.429688 C 170.5 93.96875 180.988281 85.40625 196.015625 85.40625 C 211.042969 85.40625 221.53125 93.96875 227.539062 102.429688 C 231.367188 107.820312 233.449219 113.113281 233.449219 116.035156 L 233.449219 184.09375 C 233.449219 187.789062 231.359375 192.921875 228.996094 197.800781 C 225.179688 205.675781 220.410156 212.835938 220.410156 212.835938 C 220.035156 213.394531 219.835938 214.046875 219.835938 214.71875 Z M 209.628906 289.585938 C 209.628906 287.707031 208.101562 286.183594 206.222656 286.183594 L 185.804688 286.183594 C 183.929688 286.183594 182.402344 287.707031 182.402344 289.585938 L 182.402344 306.601562 C 182.402344 308.480469 183.929688 310.003906 185.804688 310.003906 L 206.222656 310.003906 C 208.101562 310.003906 209.628906 308.480469 209.628906 306.601562 Z M 223.238281 129.644531 C 223.238281 114.617188 211.042969 102.421875 196.015625 102.421875 C 180.988281 102.421875 168.792969 114.617188 168.792969 129.644531 C 168.792969 129.644531 168.792969 163.675781 168.792969 163.675781 C 168.792969 178.703125 180.988281 190.898438 196.015625 190.898438 C 211.042969 190.898438 223.238281 178.703125 223.238281 163.675781 C 223.238281 163.675781 223.238281 129.644531 223.238281 129.644531 Z M 223.238281 129.644531 "/></g></g></svg>