<svg xmlns="http://www.w3.org/2000/svg" xmlns:xlink="http://www.w3.org/1999/xlink" width="500" zoomAndPan="magnify" viewBox="0 0 375 374.999991" height="500" preserveAspectRatio="xMidYMid meet" version="1.2"><defs><clipPath id="f2c8eb46a3"><path d="M 256 67 L 330.507812 67 L 330.507812 222 L 256 222 Z M 256 67 "/></clipPath><clipPath id="b8663ee6ea"><path d="M 252 231 L 329 231 L 329 314.53125 L 252 314.53125 Z M 252 231 "/></clipPath><clipPath id="acd18daf5a"><path d="M 73 60.28125 L 120 60.28125 L 120 108 L 73 108 Z M 73 60.28125 "/></clipPath></defs><g id="4f862d078e"><path style=" stroke:none;fill-rule:nonzero;fill:#c6bbac;fill-opacity:1;" d="M 299.804688 109.875 C 288.328125 114.21875 282.546875 127.050781 286.894531 138.527344 C 291.238281 150.003906 304.070312 155.785156 315.546875 151.4375 C 316.691406 151.003906 317.777344 150.480469 318.808594 149.886719 C 318.875 148.050781 318.921875 146.207031 318.921875 144.359375 C 318.921875 133.089844 317.664062 121.933594 315.289062 112.101562 C 315.082031 111.238281 314.855469 110.394531 314.628906 109.554688 C 309.964844 108.011719 304.757812 108 299.804688 109.875 Z M 299.804688 109.875 "/><path style=" stroke:none;fill-rule:nonzero;fill:#c6bbac;fill-opacity:1;" d="M 238.636719 256.429688 C 238.5625 256.253906 231.199219 238.660156 228.699219 230.394531 C 227.644531 226.90625 222.164062 223.832031 214.578125 219.574219 C 202.058594 212.550781 184.914062 202.933594 188.019531 189.054688 C 188.25 188.023438 188.546875 187.007812 188.832031 186.023438 C 188.996094 185.472656 189.152344 184.929688 189.296875 184.394531 C 191.75 177.605469 191.34375 170.03125 188.214844 164.113281 C 185.742188 159.441406 181.726562 156.210938 176.902344 155.019531 C 175.023438 154.558594 173.027344 154.324219 170.976562 154.324219 C 161.925781 154.324219 149.160156 159.386719 142.957031 173.671875 C 138.886719 183.210938 132.671875 199.683594 127.371094 214.070312 L 125.964844 206.65625 C 125.164062 202.453125 121.109375 199.691406 116.898438 200.488281 C 112.691406 201.289062 109.933594 205.347656 110.730469 209.554688 L 117.019531 242.625 L 116.992188 242.714844 L 117.0625 242.835938 L 119.207031 254.117188 C 119.902344 257.773438 123.101562 260.421875 126.824219 260.421875 L 147.34375 260.421875 L 147.34375 268.398438 L 154.492188 268.398438 L 154.492188 296.304688 L 130.632812 296.304688 C 128.074219 296.304688 125.984375 298.398438 125.984375 300.957031 C 125.984375 303.515625 128.074219 305.609375 130.632812 305.609375 L 186.101562 305.609375 C 188.660156 305.609375 190.753906 303.515625 190.753906 300.957031 C 190.753906 298.398438 188.660156 296.304688 186.101562 296.304688 L 162.242188 296.304688 L 162.242188 268.398438 L 169.394531 268.398438 L 169.394531 260.851562 C 175.5 261.21875 181.699219 261.371094 187.746094 261.371094 C 193.128906 261.371094 198.382812 261.253906 203.34375 261.066406 L 214.613281 296.351562 C 216.015625 300.742188 220.082031 303.542969 224.457031 303.542969 C 225.5 303.542969 226.558594 303.382812 227.605469 303.050781 C 233.042969 301.3125 236.042969 295.496094 234.304688 290.058594 L 224.640625 259.792969 C 231.789062 259.210938 236.53125 258.667969 237.386719 258.570312 L 239.433594 258.328125 Z M 120.398438 242.382812 C 122.554688 236.351562 138.074219 193 145.804688 174.898438 C 151.40625 162 162.863281 157.425781 170.976562 157.425781 C 172.777344 157.425781 174.523438 157.628906 176.160156 158.03125 C 180.113281 159.007812 183.421875 161.683594 185.476562 165.566406 C 188.210938 170.738281 188.542969 177.40625 186.363281 183.398438 L 186.320312 183.527344 C 186.175781 184.0625 186.015625 184.605469 185.855469 185.15625 C 185.554688 186.183594 185.246094 187.25 184.992188 188.378906 C 181.382812 204.507812 199.691406 214.78125 213.058594 222.28125 C 218.949219 225.582031 225.039062 229 225.734375 231.296875 C 227.808594 238.160156 232.980469 250.871094 234.980469 255.710938 C 220.597656 257.203125 135.070312 265.027344 120.398438 242.382812 Z M 120.398438 242.382812 "/><path style=" stroke:none;fill-rule:nonzero;fill:#c6bbac;fill-opacity:1;" d="M 132.386719 233.242188 C 132.535156 232.8125 147.109375 190.261719 152.867188 179.515625 C 158.257812 169.453125 165.519531 168.207031 165.847656 168.15625 C 166.691406 168.03125 167.277344 167.25 167.15625 166.402344 C 167.035156 165.554688 166.242188 164.964844 165.402344 165.085938 C 165.035156 165.140625 156.320312 166.507812 150.136719 178.050781 C 144.261719 189.015625 130.058594 230.480469 129.457031 232.242188 C 129.175781 233.050781 129.609375 233.933594 130.421875 234.207031 C 130.585938 234.265625 130.753906 234.292969 130.921875 234.292969 C 131.566406 234.292969 132.167969 233.886719 132.386719 233.242188 Z M 132.386719 233.242188 "/><path style=" stroke:none;fill-rule:nonzero;fill:#c6bbac;fill-opacity:1;" d="M 311.066406 156.789062 C 306.246094 157.976562 302.226562 161.207031 299.753906 165.882812 C 296.625 171.800781 296.222656 179.375 298.675781 186.164062 C 298.820312 186.699219 298.976562 187.242188 299.136719 187.792969 C 299.425781 188.777344 299.722656 189.792969 299.953125 190.824219 C 301.742188 198.816406 296.804688 205.398438 289.910156 210.882812 C 290.214844 210.910156 290.515625 210.941406 290.820312 210.941406 C 292.371094 210.941406 293.949219 210.597656 295.503906 209.921875 C 295.65625 209.851562 295.808594 209.761719 295.964844 209.6875 C 301.375 204.300781 304.714844 197.902344 302.976562 190.148438 C 302.726562 189.019531 302.414062 187.953125 302.113281 186.925781 C 301.953125 186.375 301.792969 185.832031 301.648438 185.296875 L 301.609375 185.167969 C 299.429688 179.171875 299.757812 172.507812 302.496094 167.332031 C 304.546875 163.449219 307.855469 160.773438 311.808594 159.800781 C 313.449219 159.394531 315.191406 159.191406 316.996094 159.191406 C 317.378906 159.191406 317.773438 159.210938 318.171875 159.234375 C 318.273438 158.207031 318.371094 157.179688 318.453125 156.140625 C 317.960938 156.113281 317.46875 156.089844 316.996094 156.089844 C 314.945312 156.089844 312.949219 156.324219 311.066406 156.789062 Z M 311.066406 156.789062 "/><g clip-rule="nonzero" clip-path="url(#f2c8eb46a3)"><path style=" stroke:none;fill-rule:nonzero;fill:#c6bbac;fill-opacity:1;" d="M 284.109375 218.609375 C 286.511719 219.898438 288.957031 220.691406 291.410156 220.976562 C 293.953125 221.273438 296.503906 221.023438 299.035156 220.207031 C 301.652344 219.363281 304.234375 217.921875 306.75 215.863281 C 309.347656 213.734375 311.859375 210.957031 314.238281 207.523438 C 316.597656 204.113281 318.75 200.167969 320.65625 195.742188 C 322.605469 191.214844 324.285156 186.21875 325.667969 180.832031 C 327.074219 175.359375 328.15625 169.519531 328.894531 163.410156 C 329.636719 157.25 330.019531 150.863281 330.019531 144.355469 C 330.019531 137.847656 329.636719 131.460938 328.894531 125.304688 C 328.160156 119.195312 327.074219 113.355469 325.667969 107.882812 C 324.289062 102.492188 322.605469 97.496094 320.65625 92.972656 C 318.75 88.546875 316.597656 84.597656 314.238281 81.191406 C 311.859375 77.753906 309.347656 74.976562 306.75 72.851562 C 304.238281 70.792969 301.652344 69.351562 299.035156 68.511719 C 296.503906 67.699219 293.953125 67.449219 291.410156 67.746094 C 288.957031 68.03125 286.511719 68.828125 284.109375 70.113281 C 281.785156 71.359375 279.578125 73.023438 277.5 75.050781 C 275.488281 77.015625 273.589844 79.332031 271.824219 81.953125 C 270.105469 84.503906 268.507812 87.351562 267.039062 90.460938 C 265.605469 93.5 264.292969 96.796875 263.109375 100.328125 C 261.988281 103.671875 261.011719 107.144531 260.179688 110.714844 C 259.359375 114.230469 258.675781 117.859375 258.125 121.558594 C 257.585938 125.222656 257.175781 128.972656 256.902344 132.785156 C 256.628906 136.578125 256.488281 140.445312 256.488281 144.359375 C 256.488281 148.273438 256.628906 152.140625 256.902344 155.933594 C 257.175781 159.746094 257.585938 163.5 258.125 167.164062 C 258.675781 170.863281 259.359375 174.488281 260.179688 178.003906 C 261.011719 181.574219 261.988281 185.046875 263.109375 188.386719 C 264.292969 191.921875 265.605469 195.21875 267.039062 198.257812 C 268.507812 201.367188 270.109375 204.21875 271.824219 206.769531 C 273.589844 209.390625 275.488281 211.707031 277.5 213.675781 C 279.578125 215.703125 281.785156 217.367188 284.109375 218.609375 Z M 265.84375 186.117188 C 263.84375 180.164062 262.273438 173.511719 261.214844 166.453125 C 260.171875 159.519531 259.601562 152.082031 259.601562 144.359375 C 259.601562 136.636719 260.171875 129.199219 261.214844 122.269531 C 262.273438 115.210938 263.84375 108.554688 265.84375 102.601562 C 267.910156 96.445312 270.464844 90.945312 273.425781 86.5 C 276.53125 81.832031 280.125 78.265625 284.109375 76.308594 C 288.339844 74.234375 292.617188 74.160156 296.742188 75.953125 C 301.101562 77.851562 305.253906 81.828125 308.917969 87.65625 C 312.75 93.761719 315.988281 101.800781 318.300781 111.371094 C 320.679688 121.199219 322.023438 132.410156 322.023438 144.355469 C 322.023438 156.304688 320.679688 167.515625 318.300781 177.347656 C 315.988281 186.914062 312.75 194.953125 308.917969 201.058594 C 305.253906 206.886719 301.101562 210.863281 296.742188 212.761719 C 292.617188 214.558594 288.339844 214.480469 284.109375 212.40625 C 280.125 210.449219 276.53125 206.882812 273.425781 202.21875 C 270.464844 197.769531 267.910156 192.273438 265.84375 186.117188 Z M 265.84375 186.117188 "/></g><path style=" stroke:none;fill-rule:nonzero;fill:#c6bbac;fill-opacity:1;" d="M 286.683594 93.503906 L 285.898438 92.5625 L 274.457031 108.027344 L 275.121094 108.96875 Z M 286.683594 93.503906 "/><path style=" stroke:none;fill-rule:nonzero;fill:#c6bbac;fill-opacity:1;" d="M 289.449219 96.828125 L 277.453125 112.296875 L 278.144531 113.285156 L 290.269531 97.816406 Z M 289.449219 96.828125 "/><path style=" stroke:none;fill-rule:nonzero;fill:#c6bbac;fill-opacity:1;" d="M 294.835938 85.179688 L 270.402344 117.449219 L 271.023438 118.410156 L 295.71875 86.140625 Z M 294.835938 85.179688 "/><g clip-rule="nonzero" clip-path="url(#b8663ee6ea)"><path style=" stroke:none;fill-rule:nonzero;fill:#c6bbac;fill-opacity:1;" d="M 326.574219 237.148438 L 328.253906 237.148438 L 328.253906 231.980469 L 285.550781 231.980469 L 252.933594 240.332031 L 254.214844 245.335938 L 255.925781 244.898438 L 255.925781 306.996094 L 284.886719 314.25 L 284.886719 237.484375 L 286.199219 237.148438 L 288.417969 237.148438 L 288.417969 314.039062 L 326.574219 314.039062 Z M 270.179688 287.898438 C 269.5 287.898438 268.949219 286.945312 268.949219 285.765625 C 268.949219 284.585938 269.5 283.632812 270.179688 283.632812 C 270.855469 283.632812 271.40625 284.585938 271.40625 285.765625 C 271.40625 286.945312 270.855469 287.898438 270.179688 287.898438 Z M 282.515625 278.378906 L 258.355469 276.960938 L 258.355469 274.632812 L 282.515625 273.210938 Z M 268.949219 248.171875 C 268.949219 246.992188 269.5 246.039062 270.179688 246.039062 C 270.855469 246.039062 271.40625 246.992188 271.40625 248.171875 C 271.40625 249.347656 270.855469 250.300781 270.179688 250.300781 C 269.5 250.300781 268.949219 249.347656 268.949219 248.171875 Z M 268.949219 248.171875 "/></g><g clip-rule="nonzero" clip-path="url(#acd18daf5a)"><path style=" stroke:none;fill-rule:nonzero;fill:#c6bbac;fill-opacity:1;" d="M 119.949219 83.789062 C 119.949219 84.550781 119.914062 85.308594 119.835938 86.066406 C 119.761719 86.824219 119.652344 87.578125 119.503906 88.324219 C 119.355469 89.070312 119.167969 89.808594 118.949219 90.539062 C 118.726562 91.265625 118.472656 91.984375 118.179688 92.6875 C 117.886719 93.390625 117.5625 94.078125 117.203125 94.75 C 116.84375 95.421875 116.453125 96.074219 116.03125 96.707031 C 115.605469 97.339844 115.152344 97.953125 114.671875 98.539062 C 114.1875 99.128906 113.675781 99.691406 113.136719 100.230469 C 112.597656 100.769531 112.035156 101.28125 111.445312 101.765625 C 110.859375 102.246094 110.246094 102.699219 109.613281 103.125 C 108.980469 103.546875 108.328125 103.9375 107.65625 104.296875 C 106.984375 104.65625 106.296875 104.980469 105.59375 105.273438 C 104.890625 105.5625 104.171875 105.820312 103.445312 106.042969 C 102.714844 106.261719 101.976562 106.449219 101.230469 106.597656 C 100.484375 106.746094 99.730469 106.855469 98.972656 106.929688 C 98.214844 107.003906 97.457031 107.042969 96.695312 107.042969 C 95.933594 107.042969 95.171875 107.003906 94.414062 106.929688 C 93.65625 106.855469 92.902344 106.746094 92.15625 106.597656 C 91.410156 106.449219 90.671875 106.261719 89.941406 106.042969 C 89.214844 105.820312 88.496094 105.5625 87.792969 105.273438 C 87.089844 104.980469 86.402344 104.65625 85.730469 104.296875 C 85.058594 103.9375 84.40625 103.546875 83.773438 103.125 C 83.140625 102.699219 82.527344 102.246094 81.941406 101.765625 C 81.351562 101.28125 80.789062 100.769531 80.25 100.230469 C 79.710938 99.691406 79.199219 99.128906 78.71875 98.539062 C 78.234375 97.953125 77.78125 97.339844 77.355469 96.707031 C 76.933594 96.074219 76.542969 95.421875 76.183594 94.75 C 75.824219 94.078125 75.5 93.390625 75.207031 92.6875 C 74.917969 91.984375 74.660156 91.265625 74.441406 90.539062 C 74.21875 89.808594 74.035156 89.070312 73.886719 88.324219 C 73.738281 87.578125 73.625 86.824219 73.550781 86.066406 C 73.476562 85.308594 73.4375 84.550781 73.4375 83.789062 C 73.4375 83.027344 73.476562 82.265625 73.550781 81.507812 C 73.625 80.75 73.738281 79.996094 73.886719 79.25 C 74.035156 78.503906 74.21875 77.765625 74.441406 77.035156 C 74.660156 76.308594 74.917969 75.589844 75.207031 74.886719 C 75.5 74.183594 75.824219 73.496094 76.183594 72.824219 C 76.542969 72.152344 76.933594 71.5 77.355469 70.867188 C 77.78125 70.234375 78.234375 69.621094 78.71875 69.035156 C 79.199219 68.445312 79.710938 67.882812 80.25 67.34375 C 80.789062 66.804688 81.351562 66.292969 81.941406 65.808594 C 82.527344 65.328125 83.140625 64.875 83.773438 64.449219 C 84.40625 64.027344 85.058594 63.636719 85.730469 63.277344 C 86.402344 62.917969 87.089844 62.59375 87.792969 62.300781 C 88.496094 62.011719 89.214844 61.753906 89.941406 61.53125 C 90.671875 61.3125 91.410156 61.128906 92.15625 60.976562 C 92.902344 60.828125 93.65625 60.71875 94.414062 60.644531 C 95.171875 60.570312 95.933594 60.53125 96.695312 60.53125 C 97.457031 60.53125 98.214844 60.570312 98.972656 60.644531 C 99.730469 60.71875 100.484375 60.828125 101.230469 60.976562 C 101.976562 61.128906 102.714844 61.3125 103.445312 61.53125 C 104.171875 61.753906 104.890625 62.011719 105.59375 62.300781 C 106.296875 62.59375 106.984375 62.917969 107.65625 63.277344 C 108.328125 63.636719 108.980469 64.027344 109.613281 64.449219 C 110.246094 64.875 110.859375 65.328125 111.445312 65.808594 C 112.035156 66.292969 112.597656 66.804688 113.136719 67.34375 C 113.675781 67.882812 114.1875 68.445312 114.671875 69.035156 C 115.152344 69.621094 115.605469 70.234375 116.03125 70.867188 C 116.453125 71.5 116.84375 72.152344 117.203125 72.824219 C 117.5625 73.496094 117.886719 74.183594 118.179688 74.886719 C 118.472656 75.589844 118.726562 76.308594 118.949219 77.035156 C 119.167969 77.765625 119.355469 78.503906 119.503906 79.25 C 119.652344 79.996094 119.761719 80.75 119.835938 81.507812 C 119.914062 82.265625 119.949219 83.027344 119.949219 83.789062 Z M 119.949219 83.789062 "/></g><path style=" stroke:none;fill-rule:nonzero;fill:#c6bbac;fill-opacity:1;" d="M 70.042969 123.273438 C 72.050781 121.089844 74.90625 119.835938 77.878906 119.835938 C 80.554688 119.835938 83.113281 120.835938 85.085938 122.652344 L 100.664062 136.992188 L 107.78125 140.5 L 119.710938 138.289062 L 144.519531 117.433594 C 147.433594 114.984375 148.222656 110.957031 146.710938 107.660156 L 146.761719 107.566406 L 146.628906 107.492188 C 146.339844 106.894531 145.976562 106.316406 145.527344 105.78125 C 143.816406 103.742188 141.328125 102.75 138.859375 102.847656 L 139.644531 101.464844 L 147.648438 106.003906 L 148.257812 104.929688 L 140.253906 100.390625 L 141.140625 98.824219 L 149.144531 103.367188 L 149.753906 102.292969 L 141.75 97.753906 L 142.636719 96.1875 L 150.640625 100.730469 L 151.25 99.65625 L 143.246094 95.117188 L 144.132812 93.550781 L 152.136719 98.09375 L 152.746094 97.019531 L 144.738281 92.480469 L 145.628906 90.914062 L 153.632812 95.453125 L 154.238281 94.382812 L 146.234375 89.84375 L 147.125 88.277344 L 155.128906 92.820312 L 155.734375 91.746094 L 147.730469 87.207031 L 148.617188 85.644531 L 156.625 90.183594 L 157.230469 89.109375 L 149.226562 84.570312 L 150.113281 83.003906 L 158.117188 87.542969 L 158.726562 86.472656 L 150.722656 81.933594 L 151.609375 80.367188 L 159.613281 84.90625 L 160.222656 83.835938 L 152.21875 79.296875 L 153.105469 77.730469 L 161.109375 82.269531 L 161.71875 81.199219 L 153.714844 76.660156 L 153.792969 76.515625 C 154.046875 76.074219 153.886719 75.507812 153.445312 75.257812 C 153.003906 75.007812 152.4375 75.164062 152.1875 75.605469 L 136.476562 103.304688 C 135.554688 103.628906 134.667969 104.109375 133.878906 104.777344 L 111.269531 123.78125 L 83.597656 110.144531 C 83.226562 109.964844 82.847656 109.824219 82.46875 109.699219 C 81.734375 109.328125 80.957031 109.035156 80.132812 108.832031 C 71.3125 106.632812 58.519531 111.425781 53.316406 126.558594 C 46.28125 147.410156 44.769531 160.980469 47.445312 183.941406 C 49.464844 194.347656 54.679688 198.914062 60.621094 200.847656 L 68.492188 234.292969 L 63.996094 291.925781 C 63.441406 299.042969 68.757812 305.257812 75.871094 305.8125 C 76.214844 305.839844 76.554688 305.851562 76.890625 305.851562 C 83.570312 305.851562 89.230469 300.707031 89.757812 293.9375 L 94.40625 234.296875 C 94.511719 232.96875 94.410156 231.632812 94.105469 230.335938 L 84.5 189.511719 C 84.492188 188.609375 84.457031 187.652344 84.394531 186.617188 C 82.929688 175.683594 84.269531 163.628906 86.175781 152.597656 L 70.664062 138.316406 C 66.34375 134.339844 66.066406 127.589844 70.042969 123.273438 Z M 70.042969 123.273438 "/><path style=" stroke:none;fill-rule:nonzero;fill:#c6bbac;fill-opacity:1;" d="M 163.9375 125.152344 C 163.589844 126.222656 163.324219 127.320312 163.144531 128.4375 C 163.25 128.621094 163.335938 128.789062 163.40625 128.929688 C 163.605469 129.324219 163.695312 129.566406 163.710938 129.613281 C 164.050781 130.507812 164.019531 131.492188 163.621094 132.375 C 163.441406 132.769531 163.191406 133.113281 162.898438 133.414062 C 163.035156 135.566406 163.492188 137.738281 164.296875 139.859375 C 168.640625 151.335938 181.46875 157.117188 192.949219 152.773438 C 204.425781 148.425781 210.207031 135.597656 205.859375 124.121094 C 201.511719 112.640625 188.683594 106.863281 177.207031 111.207031 C 171.675781 113.304688 167.472656 117.371094 165.085938 122.304688 C 165.050781 122.453125 165.011719 122.605469 164.949219 122.75 Z M 163.9375 125.152344 "/><path style=" stroke:none;fill-rule:nonzero;fill:#c6bbac;fill-opacity:1;" d="M 140.625 156.066406 L 129.796875 158.074219 C 129.910156 160.15625 131.015625 162.132812 132.921875 163.234375 C 135.945312 164.988281 139.882812 163.902344 141.671875 160.816406 L 146.882812 152.378906 C 145.347656 154.238281 143.175781 155.59375 140.625 156.066406 Z M 140.625 156.066406 "/><path style=" stroke:none;fill-rule:nonzero;fill:#c6bbac;fill-opacity:1;" d="M 144.753906 136.851562 L 144.796875 136.773438 C 145.621094 135.351562 147.464844 134.859375 148.886719 135.6875 C 150.3125 136.511719 150.800781 138.351562 149.976562 139.773438 L 148.691406 141.988281 C 148.886719 142.527344 149.042969 143.082031 149.152344 143.660156 C 149.554688 145.839844 149.257812 147.988281 148.425781 149.875 L 159.558594 131.847656 C 159.605469 131.882812 159.640625 131.929688 159.691406 131.957031 C 160.003906 132.140625 160.390625 132.183594 160.757812 132.046875 C 161.402344 131.804688 161.726562 131.085938 161.484375 130.441406 C 161.457031 130.367188 161.082031 129.417969 160.09375 128.152344 L 162.757812 121.828125 C 162.855469 121.605469 162.550781 121.425781 162.402344 121.621094 L 158.632812 126.558594 C 158.332031 126.273438 158.007812 125.988281 157.648438 125.699219 L 159.960938 120.207031 C 160.058594 119.984375 159.753906 119.808594 159.605469 120 L 156.097656 124.601562 C 155.90625 124.480469 155.71875 124.363281 155.515625 124.246094 C 155.316406 124.128906 155.117188 124.023438 154.921875 123.917969 L 157.167969 118.585938 C 157.261719 118.363281 156.960938 118.1875 156.8125 118.378906 L 153.195312 123.121094 C 152.769531 122.949219 152.355469 122.808594 151.960938 122.691406 L 154.375 116.96875 C 154.46875 116.742188 154.164062 116.566406 154.015625 116.761719 L 149.855469 122.214844 C 148.265625 121.988281 147.253906 122.136719 147.175781 122.148438 C 146.5 122.257812 146.042969 122.890625 146.148438 123.566406 C 146.214844 124.015625 146.515625 124.363281 146.90625 124.527344 L 141.09375 135.234375 C 142.417969 135.542969 143.660156 136.089844 144.753906 136.851562 Z M 144.753906 136.851562 "/><path style=" stroke:none;fill-rule:nonzero;fill:#c6bbac;fill-opacity:1;" d="M 140.191406 153.730469 C 144.679688 152.898438 147.644531 148.582031 146.8125 144.09375 C 145.980469 139.601562 141.675781 136.636719 137.175781 137.46875 L 104.292969 143.5625 L 83.472656 124.398438 C 80.117188 121.308594 74.882812 121.523438 71.789062 124.882812 C 68.699219 128.242188 68.914062 133.472656 72.273438 136.566406 L 96.132812 158.53125 C 97.671875 159.945312 99.675781 160.714844 101.734375 160.714844 C 102.234375 160.714844 102.738281 160.667969 103.238281 160.578125 Z M 140.191406 153.730469 "/></g></svg>