<svg xmlns="http://www.w3.org/2000/svg" xmlns:xlink="http://www.w3.org/1999/xlink" width="500" zoomAndPan="magnify" viewBox="0 0 375 374.999991" height="500" preserveAspectRatio="xMidYMid meet" version="1.2"><defs><clipPath id="039a7823e3"><path d="M 71 51 L 304.464844 51 L 304.464844 325.40625 L 71 325.40625 Z M 71 51 "/></clipPath></defs><g id="87440eb968"><g clip-rule="nonzero" clip-path="url(#039a7823e3)"><path style=" stroke:none;fill-rule:nonzero;fill:#c6bbac;fill-opacity:1;" d="M 302.421875 257.984375 C 299.675781 247.476562 295.078125 237.605469 291.425781 227.40625 C 284.726562 210.058594 280.496094 192.128906 278.730469 173.617188 C 277.511719 162.121094 278.339844 150.515625 277.039062 139.023438 C 276.664062 134.429688 275.988281 129.882812 275.011719 125.378906 C 274.03125 120.871094 272.757812 116.453125 271.1875 112.117188 C 269.621094 107.785156 267.773438 103.574219 265.640625 99.484375 C 263.511719 95.398438 261.121094 91.46875 258.46875 87.699219 C 255.820312 83.976562 252.898438 80.484375 249.695312 77.226562 C 246.496094 73.964844 243.054688 70.980469 239.378906 68.265625 C 235.703125 65.554688 231.839844 63.148438 227.78125 61.050781 C 223.722656 58.949219 219.527344 57.183594 215.1875 55.75 C 210.230469 54.175781 205.171875 53.046875 200.019531 52.355469 C 194.863281 51.664062 189.6875 51.429688 184.488281 51.644531 C 179.292969 51.859375 174.152344 52.523438 169.070312 53.636719 C 163.992188 54.753906 159.046875 56.296875 154.234375 58.277344 C 148.191406 60.84375 142.503906 64.046875 137.175781 67.886719 C 131.847656 71.730469 127.011719 76.109375 122.667969 81.035156 C 118.15625 86.210938 114.253906 91.8125 110.960938 97.839844 C 107.671875 103.867188 105.070312 110.179688 103.15625 116.773438 C 99.695312 129.167969 98.015625 141.796875 98.117188 154.664062 C 98.042969 166.085938 96.914062 177.402344 94.730469 188.617188 C 92.445312 199.820312 89.355469 210.792969 85.457031 221.542969 C 82.390625 230.203125 78.824219 238.667969 75.738281 247.316406 C 73.964844 251.75 72.707031 256.328125 71.972656 261.050781 C 71.238281 265.769531 71.039062 270.511719 71.382812 275.277344 C 71.648438 277.484375 72.09375 279.652344 72.722656 281.785156 C 73.351562 283.917969 74.15625 285.980469 75.132812 287.976562 C 76.109375 289.972656 77.246094 291.875 78.542969 293.679688 C 79.84375 295.484375 81.28125 297.167969 82.863281 298.726562 C 82.007812 296.863281 81.320312 294.9375 80.796875 292.953125 C 80.273438 290.96875 79.921875 288.953125 79.746094 286.910156 C 79.570312 284.863281 79.570312 282.820312 79.75 280.777344 C 79.925781 278.730469 80.277344 276.714844 80.800781 274.730469 C 83.367188 264.632812 86.839844 254.859375 91.222656 245.40625 C 98.058594 230.757812 103.855469 215.707031 108.609375 200.257812 C 108.460938 202.273438 108.140625 204.265625 107.648438 206.226562 C 106.679688 210.945312 105.6875 215.660156 104.671875 220.371094 C 102.195312 231.96875 99.230469 243.476562 97.324219 255.191406 C 96.183594 261.539062 95.789062 267.929688 96.144531 274.367188 C 96.382812 279.832031 97.410156 285.140625 99.226562 290.296875 C 101.042969 295.453125 103.574219 300.234375 106.8125 304.640625 C 108.820312 307.414062 111.09375 309.949219 113.621094 312.257812 C 116.152344 314.5625 118.890625 316.589844 121.835938 318.335938 C 124.78125 320.082031 127.871094 321.507812 131.109375 322.621094 C 134.347656 323.734375 137.667969 324.503906 141.0625 324.9375 C 135.191406 321.5625 130.25 317.152344 126.230469 311.703125 C 123.484375 308.050781 121.199219 304.132812 119.375 299.945312 C 117.550781 295.757812 116.238281 291.417969 115.433594 286.921875 C 130.472656 281.5 145.40625 275.789062 160.46875 270.433594 C 160.480469 262.910156 160.425781 255.390625 160.425781 247.871094 C 162.472656 250.203125 164.632812 252.429688 166.902344 254.542969 C 169.34375 256.714844 172.0625 258.449219 175.058594 259.746094 C 178.054688 261.042969 181.179688 261.839844 184.433594 262.136719 C 188.183594 262.558594 191.910156 262.386719 195.605469 261.621094 C 199.300781 260.855469 202.789062 259.535156 206.0625 257.65625 C 210.109375 255.085938 213.53125 251.855469 216.328125 247.964844 C 216.507812 255.5 216.359375 263.035156 216.441406 270.574219 C 218.933594 271.386719 221.378906 272.339844 223.8125 273.316406 C 236.039062 277.945312 248.285156 282.535156 260.484375 287.21875 C 260.582031 290.804688 260.300781 294.359375 259.632812 297.882812 C 258.960938 301.40625 257.925781 304.816406 256.515625 308.117188 C 255.109375 311.417969 253.367188 314.527344 251.285156 317.449219 C 249.203125 320.371094 246.835938 323.035156 244.179688 325.445312 C 247.789062 324.621094 251.246094 323.378906 254.554688 321.722656 C 258.0625 319.914062 261.191406 317.597656 263.945312 314.777344 C 266.703125 311.960938 268.945312 308.777344 270.671875 305.230469 C 272.796875 300.867188 274.398438 296.316406 275.472656 291.585938 C 276.546875 286.851562 277.066406 282.054688 277.035156 277.203125 C 277.449219 257.1875 272.472656 237.648438 268.316406 218.230469 C 267.886719 216.367188 267.597656 214.480469 267.445312 212.574219 C 270.792969 221.878906 274.625 230.980469 278.945312 239.875 C 283.4375 248.773438 287.457031 257.878906 290.996094 267.195312 C 293.671875 274.058594 294.941406 281.175781 294.804688 288.539062 C 294.613281 292.207031 293.753906 295.710938 292.21875 299.050781 C 295.171875 296.15625 297.621094 292.882812 299.5625 289.230469 C 301.507812 285.582031 302.855469 281.722656 303.609375 277.65625 C 304.613281 271.011719 304.21875 264.457031 302.421875 257.984375 Z M 256.1875 183.335938 C 254.921875 184.789062 253.464844 186.015625 251.816406 187.019531 C 250.171875 188.023438 248.410156 188.753906 246.539062 189.214844 C 246.195312 192.457031 245.640625 195.660156 244.878906 198.828125 C 244.117188 201.996094 243.152344 205.101562 241.988281 208.144531 C 240.820312 211.1875 239.464844 214.144531 237.914062 217.011719 C 236.363281 219.875 234.636719 222.628906 232.726562 225.273438 C 230.820312 227.914062 228.75 230.421875 226.515625 232.792969 C 224.28125 235.164062 221.902344 237.382812 219.378906 239.445312 C 216.859375 241.511719 214.214844 243.402344 211.445312 245.121094 C 208.675781 246.839844 205.808594 248.371094 202.84375 249.71875 C 199.859375 251.179688 196.722656 252.167969 193.441406 252.6875 C 190.160156 253.207031 186.875 253.234375 183.585938 252.765625 C 179.046875 251.921875 174.738281 250.421875 170.652344 248.273438 C 166.742188 246.28125 163.035156 243.96875 159.53125 241.324219 C 156.027344 238.679688 152.78125 235.75 149.796875 232.53125 C 146.8125 229.316406 144.128906 225.863281 141.753906 222.171875 C 139.378906 218.484375 137.34375 214.613281 135.652344 210.5625 C 132.800781 203.539062 130.953125 196.257812 130.113281 188.726562 C 127.308594 188.019531 124.871094 186.652344 122.804688 184.628906 C 121.097656 183.1875 119.660156 181.515625 118.492188 179.613281 C 117.324219 177.710938 116.480469 175.675781 115.964844 173.503906 C 115.800781 172.917969 115.710938 172.320312 115.695312 171.710938 C 115.679688 171.105469 115.742188 170.503906 115.878906 169.910156 C 116.015625 169.316406 116.222656 168.75 116.5 168.210938 C 116.777344 167.667969 117.117188 167.171875 117.519531 166.714844 C 118.207031 166.15625 118.988281 165.796875 119.859375 165.632812 C 120.730469 165.46875 121.585938 165.527344 122.429688 165.796875 C 125.074219 166.867188 127.398438 168.414062 129.410156 170.433594 C 129.269531 163.457031 129.351562 156.46875 129.394531 149.492188 C 129.335938 145.015625 129.78125 140.589844 130.730469 136.210938 C 131.679688 131.835938 133.105469 127.621094 135.011719 123.566406 C 137.242188 127.550781 139.828125 131.285156 142.773438 134.769531 C 145.71875 138.257812 148.96875 141.433594 152.523438 144.296875 C 156.078125 147.160156 159.871094 149.660156 163.90625 151.796875 C 167.9375 153.929688 172.140625 155.664062 176.503906 156.996094 C 173.1875 154.648438 170.121094 152.011719 167.304688 149.082031 C 161.539062 143.628906 157.011719 137.289062 153.714844 130.070312 C 152.863281 128.289062 152.304688 126.417969 152.035156 124.460938 C 151.765625 122.503906 151.796875 120.550781 152.136719 118.605469 C 157.796875 125.511719 164.105469 131.769531 171.054688 137.378906 C 178 142.988281 185.449219 147.835938 193.390625 151.914062 C 197.664062 154.074219 202.058594 155.933594 206.585938 157.492188 C 211.109375 159.046875 215.71875 160.292969 220.414062 161.21875 C 225.109375 162.148438 229.847656 162.753906 234.625 163.035156 C 239.402344 163.316406 244.175781 163.269531 248.945312 162.898438 C 248.886719 166.242188 248.851562 169.589844 248.695312 172.933594 C 251.171875 172.175781 253.4375 171.007812 255.488281 169.425781 C 256.699219 168.644531 257.753906 167.378906 259.253906 167.226562 C 260.074219 167.773438 260.703125 168.488281 261.136719 169.375 C 261.570312 170.261719 261.753906 171.195312 261.683594 172.179688 C 261.53125 174.324219 260.980469 176.363281 260.027344 178.296875 C 259.078125 180.226562 257.796875 181.90625 256.1875 183.335938 Z M 256.1875 183.335938 "/></g></g></svg>