<svg xmlns="http://www.w3.org/2000/svg" xmlns:xlink="http://www.w3.org/1999/xlink" width="500" zoomAndPan="magnify" viewBox="0 0 375 374.999991" height="500" preserveAspectRatio="xMidYMid meet" version="1.2"><defs><clipPath id="50f7272f25"><path d="M 73.4375 73.4375 L 301.4375 73.4375 L 301.4375 301.4375 L 73.4375 301.4375 Z M 73.4375 73.4375 "/></clipPath></defs><g id="00d47b99ce"><path style=" stroke:none;fill-rule:nonzero;fill:#c6bbac;fill-opacity:1;" d="M 277.621094 210.449219 C 277.621094 210.828125 277.585938 211.199219 277.511719 211.570312 C 277.4375 211.941406 277.328125 212.300781 277.183594 212.648438 C 277.039062 212.996094 276.863281 213.328125 276.652344 213.640625 C 276.445312 213.953125 276.207031 214.242188 275.941406 214.511719 C 275.671875 214.777344 275.382812 215.015625 275.070312 215.222656 C 274.757812 215.433594 274.425781 215.609375 274.078125 215.753906 C 273.730469 215.898438 273.371094 216.007812 273 216.082031 C 272.628906 216.15625 272.257812 216.191406 271.878906 216.191406 C 271.503906 216.191406 271.128906 216.15625 270.761719 216.082031 C 270.390625 216.007812 270.03125 215.898438 269.683594 215.753906 C 269.335938 215.609375 269.003906 215.433594 268.691406 215.222656 C 268.378906 215.015625 268.085938 214.777344 267.820312 214.511719 C 267.554688 214.242188 267.316406 213.953125 267.105469 213.640625 C 266.898438 213.328125 266.71875 212.996094 266.574219 212.648438 C 266.429688 212.300781 266.324219 211.941406 266.25 211.570312 C 266.175781 211.199219 266.140625 210.828125 266.140625 210.449219 C 266.140625 210.074219 266.175781 209.699219 266.25 209.328125 C 266.324219 208.960938 266.429688 208.601562 266.574219 208.253906 C 266.71875 207.90625 266.898438 207.574219 267.105469 207.261719 C 267.316406 206.945312 267.554688 206.65625 267.820312 206.390625 C 268.085938 206.125 268.378906 205.886719 268.691406 205.675781 C 269.003906 205.46875 269.335938 205.289062 269.683594 205.144531 C 270.03125 205 270.390625 204.894531 270.761719 204.820312 C 271.128906 204.746094 271.503906 204.707031 271.878906 204.707031 C 272.257812 204.707031 272.628906 204.746094 273 204.820312 C 273.371094 204.894531 273.730469 205 274.078125 205.144531 C 274.425781 205.289062 274.757812 205.46875 275.070312 205.675781 C 275.382812 205.886719 275.671875 206.125 275.941406 206.390625 C 276.207031 206.65625 276.445312 206.945312 276.652344 207.261719 C 276.863281 207.574219 277.039062 207.90625 277.183594 208.253906 C 277.328125 208.601562 277.4375 208.960938 277.511719 209.328125 C 277.585938 209.699219 277.621094 210.074219 277.621094 210.449219 Z M 277.621094 210.449219 "/><path style=" stroke:none;fill-rule:nonzero;fill:#c6bbac;fill-opacity:1;" d="M 241.660156 209.695312 C 241.660156 210.070312 241.625 210.445312 241.550781 210.8125 C 241.476562 211.183594 241.367188 211.542969 241.222656 211.890625 C 241.078125 212.238281 240.902344 212.570312 240.695312 212.882812 C 240.484375 213.195312 240.246094 213.488281 239.980469 213.753906 C 239.714844 214.019531 239.421875 214.257812 239.109375 214.46875 C 238.796875 214.675781 238.464844 214.855469 238.117188 215 C 237.769531 215.140625 237.410156 215.25 237.039062 215.324219 C 236.671875 215.398438 236.296875 215.433594 235.921875 215.433594 C 235.542969 215.433594 235.167969 215.398438 234.800781 215.324219 C 234.429688 215.25 234.070312 215.140625 233.722656 215 C 233.375 214.855469 233.042969 214.675781 232.730469 214.46875 C 232.417969 214.257812 232.125 214.019531 231.859375 213.753906 C 231.59375 213.488281 231.355469 213.195312 231.144531 212.882812 C 230.9375 212.570312 230.761719 212.238281 230.617188 211.890625 C 230.472656 211.542969 230.363281 211.183594 230.289062 210.8125 C 230.214844 210.445312 230.179688 210.070312 230.179688 209.695312 C 230.179688 209.316406 230.214844 208.945312 230.289062 208.574219 C 230.363281 208.203125 230.472656 207.84375 230.617188 207.496094 C 230.761719 207.148438 230.9375 206.816406 231.144531 206.503906 C 231.355469 206.191406 231.59375 205.902344 231.859375 205.632812 C 232.125 205.367188 232.417969 205.128906 232.730469 204.921875 C 233.042969 204.710938 233.375 204.535156 233.722656 204.390625 C 234.070312 204.246094 234.429688 204.136719 234.800781 204.0625 C 235.167969 203.988281 235.542969 203.953125 235.921875 203.953125 C 236.296875 203.953125 236.671875 203.988281 237.039062 204.0625 C 237.410156 204.136719 237.769531 204.246094 238.117188 204.390625 C 238.464844 204.535156 238.796875 204.710938 239.109375 204.921875 C 239.421875 205.128906 239.714844 205.367188 239.980469 205.632812 C 240.246094 205.902344 240.484375 206.191406 240.695312 206.503906 C 240.902344 206.816406 241.078125 207.148438 241.222656 207.496094 C 241.367188 207.84375 241.476562 208.203125 241.550781 208.574219 C 241.625 208.945312 241.660156 209.316406 241.660156 209.695312 Z M 241.660156 209.695312 "/><path style=" stroke:none;fill-rule:nonzero;fill:#c6bbac;fill-opacity:1;" d="M 145.664062 244.070312 C 145.664062 244.449219 145.628906 244.820312 145.554688 245.191406 C 145.480469 245.5625 145.371094 245.921875 145.226562 246.269531 C 145.082031 246.617188 144.90625 246.949219 144.699219 247.261719 C 144.488281 247.574219 144.25 247.863281 143.984375 248.132812 C 143.71875 248.398438 143.425781 248.636719 143.113281 248.84375 C 142.800781 249.054688 142.46875 249.230469 142.121094 249.375 C 141.773438 249.519531 141.414062 249.628906 141.042969 249.703125 C 140.675781 249.777344 140.300781 249.8125 139.921875 249.8125 C 139.546875 249.8125 139.171875 249.777344 138.804688 249.703125 C 138.433594 249.628906 138.074219 249.519531 137.726562 249.375 C 137.378906 249.230469 137.046875 249.054688 136.734375 248.84375 C 136.421875 248.636719 136.128906 248.398438 135.863281 248.132812 C 135.597656 247.863281 135.359375 247.574219 135.148438 247.261719 C 134.941406 246.949219 134.761719 246.617188 134.621094 246.269531 C 134.476562 245.921875 134.367188 245.5625 134.292969 245.191406 C 134.21875 244.820312 134.183594 244.449219 134.183594 244.070312 C 134.183594 243.695312 134.21875 243.320312 134.292969 242.949219 C 134.367188 242.582031 134.476562 242.222656 134.621094 241.875 C 134.761719 241.527344 134.941406 241.195312 135.148438 240.882812 C 135.359375 240.566406 135.597656 240.277344 135.863281 240.011719 C 136.128906 239.746094 136.421875 239.507812 136.734375 239.296875 C 137.046875 239.089844 137.378906 238.910156 137.726562 238.765625 C 138.074219 238.621094 138.433594 238.515625 138.804688 238.441406 C 139.171875 238.367188 139.546875 238.328125 139.921875 238.328125 C 140.300781 238.328125 140.675781 238.367188 141.042969 238.441406 C 141.414062 238.515625 141.773438 238.621094 142.121094 238.765625 C 142.46875 238.910156 142.800781 239.089844 143.113281 239.296875 C 143.425781 239.507812 143.71875 239.746094 143.984375 240.011719 C 144.25 240.277344 144.488281 240.566406 144.699219 240.882812 C 144.90625 241.195312 145.082031 241.527344 145.226562 241.875 C 145.371094 242.222656 145.480469 242.582031 145.554688 242.949219 C 145.628906 243.320312 145.664062 243.695312 145.664062 244.070312 Z M 145.664062 244.070312 "/><path style=" stroke:none;fill-rule:nonzero;fill:#c6bbac;fill-opacity:1;" d="M 103.445312 209.695312 C 103.445312 210.070312 103.40625 210.445312 103.332031 210.8125 C 103.261719 211.183594 103.152344 211.542969 103.007812 211.890625 C 102.863281 212.238281 102.683594 212.570312 102.476562 212.882812 C 102.265625 213.195312 102.027344 213.488281 101.761719 213.753906 C 101.496094 214.019531 101.207031 214.257812 100.890625 214.46875 C 100.578125 214.675781 100.246094 214.855469 99.898438 215 C 99.550781 215.140625 99.191406 215.25 98.824219 215.324219 C 98.453125 215.398438 98.078125 215.433594 97.703125 215.433594 C 97.324219 215.433594 96.953125 215.398438 96.582031 215.324219 C 96.210938 215.25 95.855469 215.140625 95.503906 215 C 95.15625 214.855469 94.824219 214.675781 94.511719 214.46875 C 94.199219 214.257812 93.910156 214.019531 93.644531 213.753906 C 93.375 213.488281 93.136719 213.195312 92.929688 212.882812 C 92.71875 212.570312 92.542969 212.238281 92.398438 211.890625 C 92.253906 211.542969 92.144531 211.183594 92.070312 210.8125 C 91.996094 210.445312 91.960938 210.070312 91.960938 209.695312 C 91.960938 209.316406 91.996094 208.945312 92.070312 208.574219 C 92.144531 208.203125 92.253906 207.84375 92.398438 207.496094 C 92.542969 207.148438 92.71875 206.816406 92.929688 206.503906 C 93.136719 206.191406 93.375 205.902344 93.644531 205.632812 C 93.910156 205.367188 94.199219 205.128906 94.511719 204.921875 C 94.824219 204.710938 95.15625 204.535156 95.503906 204.390625 C 95.851562 204.246094 96.210938 204.136719 96.582031 204.0625 C 96.953125 203.988281 97.324219 203.953125 97.703125 203.953125 C 98.078125 203.953125 98.453125 203.988281 98.824219 204.0625 C 99.191406 204.136719 99.550781 204.246094 99.898438 204.390625 C 100.246094 204.535156 100.578125 204.710938 100.890625 204.921875 C 101.207031 205.128906 101.496094 205.367188 101.761719 205.632812 C 102.027344 205.902344 102.265625 206.191406 102.476562 206.503906 C 102.683594 206.816406 102.863281 207.148438 103.007812 207.496094 C 103.152344 207.84375 103.261719 208.203125 103.332031 208.574219 C 103.40625 208.945312 103.445312 209.316406 103.445312 209.695312 Z M 103.445312 209.695312 "/><path style=" stroke:none;fill-rule:nonzero;fill:#c6bbac;fill-opacity:1;" d="M 114.21875 240.363281 C 114.21875 240.851562 114.125 241.320312 113.9375 241.773438 C 113.75 242.222656 113.484375 242.621094 113.136719 242.96875 C 112.792969 243.3125 112.394531 243.578125 111.941406 243.765625 C 111.492188 243.953125 111.019531 244.046875 110.53125 244.046875 C 110.042969 244.046875 109.574219 243.953125 109.121094 243.765625 C 108.667969 243.578125 108.269531 243.3125 107.925781 242.96875 C 107.578125 242.621094 107.3125 242.222656 107.125 241.773438 C 106.941406 241.320312 106.847656 240.851562 106.847656 240.363281 C 106.847656 239.871094 106.941406 239.402344 107.125 238.953125 C 107.3125 238.5 107.578125 238.101562 107.925781 237.753906 C 108.269531 237.410156 108.667969 237.144531 109.121094 236.957031 C 109.574219 236.769531 110.042969 236.675781 110.53125 236.675781 C 111.019531 236.675781 111.492188 236.769531 111.941406 236.957031 C 112.394531 237.144531 112.792969 237.410156 113.136719 237.753906 C 113.484375 238.101562 113.75 238.5 113.9375 238.953125 C 114.125 239.402344 114.21875 239.871094 114.21875 240.363281 Z M 114.21875 240.363281 "/><path style=" stroke:none;fill-rule:nonzero;fill:#c6bbac;fill-opacity:1;" d="M 235.921875 240.363281 C 235.921875 240.851562 235.828125 241.320312 235.640625 241.773438 C 235.453125 242.222656 235.1875 242.621094 234.839844 242.96875 C 234.496094 243.3125 234.097656 243.578125 233.644531 243.765625 C 233.191406 243.953125 232.722656 244.046875 232.234375 244.046875 C 231.746094 244.046875 231.273438 243.953125 230.824219 243.765625 C 230.371094 243.578125 229.972656 243.3125 229.628906 242.96875 C 229.28125 242.621094 229.015625 242.222656 228.828125 241.773438 C 228.640625 241.320312 228.546875 240.851562 228.546875 240.363281 C 228.546875 239.871094 228.640625 239.402344 228.828125 238.953125 C 229.015625 238.5 229.28125 238.101562 229.628906 237.753906 C 229.972656 237.410156 230.371094 237.144531 230.824219 236.957031 C 231.273438 236.769531 231.746094 236.675781 232.234375 236.675781 C 232.722656 236.675781 233.191406 236.769531 233.644531 236.957031 C 234.097656 237.144531 234.496094 237.410156 234.839844 237.753906 C 235.1875 238.101562 235.453125 238.5 235.640625 238.953125 C 235.828125 239.402344 235.921875 239.871094 235.921875 240.363281 Z M 235.921875 240.363281 "/><path style=" stroke:none;fill-rule:nonzero;fill:#c6bbac;fill-opacity:1;" d="M 266.164062 229.753906 C 266.164062 230.316406 266.105469 230.878906 265.996094 231.429688 C 265.886719 231.984375 265.722656 232.523438 265.507812 233.042969 C 265.292969 233.566406 265.027344 234.0625 264.714844 234.53125 C 264.398438 235 264.042969 235.433594 263.644531 235.835938 C 263.246094 236.234375 262.808594 236.589844 262.339844 236.902344 C 261.871094 237.21875 261.375 237.484375 260.851562 237.699219 C 260.332031 237.914062 259.792969 238.078125 259.238281 238.1875 C 258.6875 238.296875 258.125 238.355469 257.5625 238.355469 C 256.996094 238.355469 256.4375 238.296875 255.882812 238.1875 C 255.332031 238.078125 254.792969 237.914062 254.269531 237.699219 C 253.75 237.484375 253.253906 237.21875 252.785156 236.902344 C 252.316406 236.589844 251.878906 236.234375 251.480469 235.835938 C 251.082031 235.433594 250.726562 235 250.410156 234.53125 C 250.097656 234.0625 249.832031 233.566406 249.617188 233.042969 C 249.402344 232.523438 249.238281 231.984375 249.128906 231.429688 C 249.015625 230.878906 248.960938 230.316406 248.960938 229.753906 C 248.960938 229.1875 249.015625 228.628906 249.128906 228.074219 C 249.238281 227.523438 249.402344 226.984375 249.617188 226.460938 C 249.832031 225.941406 250.097656 225.445312 250.410156 224.976562 C 250.726562 224.503906 251.082031 224.070312 251.480469 223.671875 C 251.878906 223.273438 252.316406 222.917969 252.785156 222.601562 C 253.253906 222.289062 253.75 222.023438 254.269531 221.808594 C 254.792969 221.589844 255.332031 221.429688 255.882812 221.316406 C 256.4375 221.207031 256.996094 221.152344 257.5625 221.152344 C 258.125 221.152344 258.6875 221.207031 259.238281 221.316406 C 259.792969 221.429688 260.332031 221.589844 260.851562 221.808594 C 261.375 222.023438 261.871094 222.289062 262.339844 222.601562 C 262.808594 222.917969 263.246094 223.273438 263.644531 223.671875 C 264.042969 224.070312 264.398438 224.503906 264.714844 224.976562 C 265.027344 225.445312 265.292969 225.941406 265.507812 226.460938 C 265.722656 226.984375 265.886719 227.523438 265.996094 228.074219 C 266.105469 228.628906 266.164062 229.1875 266.164062 229.753906 Z M 266.164062 229.753906 "/><path style=" stroke:none;fill-rule:nonzero;fill:#c6bbac;fill-opacity:1;" d="M 133.757812 219.050781 C 133.757812 219.613281 133.703125 220.175781 133.59375 220.726562 C 133.480469 221.28125 133.320312 221.820312 133.101562 222.339844 C 132.886719 222.863281 132.621094 223.359375 132.308594 223.828125 C 131.992188 224.296875 131.636719 224.730469 131.238281 225.132812 C 130.839844 225.53125 130.40625 225.886719 129.933594 226.199219 C 129.464844 226.515625 128.96875 226.78125 128.449219 226.996094 C 127.925781 227.210938 127.386719 227.375 126.835938 227.484375 C 126.28125 227.59375 125.722656 227.652344 125.15625 227.652344 C 124.59375 227.652344 124.03125 227.59375 123.480469 227.484375 C 122.925781 227.375 122.386719 227.210938 121.867188 226.996094 C 121.34375 226.78125 120.847656 226.515625 120.378906 226.199219 C 119.910156 225.886719 119.476562 225.53125 119.074219 225.132812 C 118.675781 224.730469 118.320312 224.296875 118.007812 223.828125 C 117.691406 223.359375 117.425781 222.863281 117.210938 222.339844 C 116.996094 221.820312 116.832031 221.28125 116.722656 220.726562 C 116.613281 220.175781 116.558594 219.613281 116.558594 219.050781 C 116.558594 218.484375 116.613281 217.925781 116.722656 217.371094 C 116.832031 216.820312 116.996094 216.28125 117.210938 215.757812 C 117.425781 215.238281 117.691406 214.742188 118.007812 214.273438 C 118.320312 213.804688 118.675781 213.367188 119.074219 212.96875 C 119.476562 212.570312 119.910156 212.214844 120.378906 211.898438 C 120.847656 211.585938 121.34375 211.320312 121.867188 211.105469 C 122.386719 210.886719 122.925781 210.726562 123.480469 210.617188 C 124.03125 210.503906 124.59375 210.449219 125.15625 210.449219 C 125.722656 210.449219 126.28125 210.503906 126.835938 210.617188 C 127.386719 210.726562 127.925781 210.886719 128.449219 211.105469 C 128.96875 211.320312 129.464844 211.585938 129.933594 211.898438 C 130.40625 212.214844 130.839844 212.570312 131.238281 212.96875 C 131.636719 213.367188 131.992188 213.804688 132.308594 214.273438 C 132.621094 214.742188 132.886719 215.238281 133.101562 215.757812 C 133.320312 216.28125 133.480469 216.820312 133.59375 217.371094 C 133.703125 217.925781 133.757812 218.484375 133.757812 219.050781 Z M 133.757812 219.050781 "/><path style=" stroke:none;fill-rule:nonzero;fill:#c6bbac;fill-opacity:1;" d="M 151.546875 130.355469 C 152.445312 125.699219 156.011719 122.015625 160.574219 120.855469 C 156.011719 119.699219 152.46875 116.011719 151.546875 111.359375 C 150.648438 116.011719 147.105469 119.699219 142.546875 120.855469 C 147.105469 122.015625 150.648438 125.722656 151.546875 130.355469 Z M 151.546875 130.355469 "/><path style=" stroke:none;fill-rule:nonzero;fill:#c6bbac;fill-opacity:1;" d="M 176.261719 141.601562 C 176.828125 138.765625 179.003906 136.496094 181.789062 135.789062 C 179.003906 135.082031 176.828125 132.8125 176.261719 129.976562 C 175.71875 132.8125 173.542969 135.082031 170.734375 135.789062 C 173.542969 136.496094 175.71875 138.765625 176.261719 141.601562 Z M 176.261719 141.601562 "/><path style=" stroke:none;fill-rule:nonzero;fill:#c6bbac;fill-opacity:1;" d="M 160.359375 139.332031 C 158.992188 146.515625 153.484375 152.210938 146.445312 154.003906 C 153.484375 155.753906 158.96875 161.472656 160.359375 168.652344 C 161.753906 161.472656 167.261719 155.777344 174.300781 154.003906 C 167.238281 152.234375 161.753906 146.515625 160.359375 139.332031 Z M 160.359375 139.332031 "/><g clip-rule="nonzero" clip-path="url(#50f7272f25)"><path style=" stroke:none;fill-rule:nonzero;fill:#c6bbac;fill-opacity:1;" d="M 187.4375 73.4375 C 124.472656 73.4375 73.4375 124.472656 73.4375 187.4375 C 73.4375 187.863281 73.4375 188.3125 73.460938 188.738281 C 73.484375 191.785156 73.648438 194.808594 73.910156 197.785156 C 76.179688 222.949219 86.621094 245.773438 102.546875 263.539062 C 105.40625 266.730469 108.453125 269.730469 111.617188 272.589844 C 131.75 290.523438 158.328125 301.4375 187.4375 301.4375 C 216.546875 301.4375 243.101562 290.523438 263.234375 272.589844 C 266.421875 269.730469 269.445312 266.730469 272.304688 263.539062 C 288.253906 245.773438 298.695312 222.949219 300.941406 197.785156 C 301.203125 194.808594 301.367188 191.785156 301.390625 188.738281 C 301.414062 188.3125 301.414062 187.863281 301.414062 187.4375 C 301.4375 124.472656 250.402344 73.4375 187.4375 73.4375 Z M 259.617188 263.5625 C 256.191406 266.847656 252.554688 269.871094 248.703125 272.613281 C 231.453125 285.0625 210.285156 292.410156 187.4375 292.410156 C 164.589844 292.410156 143.421875 285.0625 126.171875 272.613281 C 122.34375 269.871094 118.683594 266.847656 115.257812 263.5625 C 97.441406 246.671875 85.511719 223.585938 82.984375 197.808594 L 150.675781 197.808594 C 148.664062 201.851562 147.25 206.222656 146.492188 210.78125 C 144.34375 224.152344 148.027344 237.410156 156.34375 246.246094 C 161.234375 251.464844 167.449219 254.820312 174.324219 255.957031 L 174.371094 255.980469 L 174.417969 255.980469 C 176.121094 256.238281 177.773438 256.378906 179.332031 256.378906 C 188.382812 256.378906 197.101562 252.457031 203.859375 245.347656 C 209.695312 239.226562 213.710938 230.933594 215.175781 222.027344 C 216.285156 215.058594 215.835938 207.992188 213.875 201.566406 C 213.472656 200.289062 213.167969 199.0625 212.953125 197.808594 L 291.84375 197.808594 C 289.363281 223.585938 277.433594 246.671875 259.617188 263.5625 Z M 292.386719 188.738281 L 203.644531 188.738281 C 203.101562 193.746094 203.667969 198.96875 205.277344 204.210938 C 206.859375 209.316406 207.191406 214.960938 206.292969 220.5625 C 205.132812 227.675781 201.945312 234.289062 197.359375 239.085938 C 192.328125 244.378906 185.949219 247.332031 179.378906 247.332031 C 178.199219 247.332031 177.019531 247.214844 175.835938 247.046875 C 170.945312 246.246094 166.480469 243.8125 162.960938 240.054688 C 156.535156 233.25 153.722656 222.855469 155.421875 212.222656 C 156.390625 206.386719 158.707031 200.90625 162.109375 196.390625 C 163.738281 193.957031 165.132812 191.40625 166.386719 188.761719 L 82.488281 188.761719 C 82.464844 188.335938 82.464844 187.886719 82.464844 187.460938 C 82.464844 129.597656 129.550781 82.511719 187.414062 82.511719 C 245.277344 82.511719 292.363281 129.597656 292.363281 187.460938 C 292.386719 187.863281 292.386719 188.3125 292.386719 188.738281 Z M 292.386719 188.738281 "/></g><path style=" stroke:none;fill-rule:nonzero;fill:#c6bbac;fill-opacity:1;" d="M 174.796875 187.699219 C 174.65625 188.027344 174.511719 188.359375 174.371094 188.667969 L 174.324219 188.714844 C 172.574219 192.777344 170.566406 196.746094 168.015625 200.574219 C 165.347656 204.023438 163.386719 208.417969 162.558594 213.378906 C 161.164062 221.980469 163.503906 230.085938 168.207031 235.070312 C 170.566406 237.597656 173.570312 239.320312 176.972656 239.890625 C 182.453125 240.785156 187.910156 238.496094 192.042969 234.125 C 195.566406 230.460938 198.140625 225.335938 199.109375 219.40625 C 199.867188 214.773438 199.535156 210.285156 198.328125 206.363281 C 196.414062 200.078125 195.683594 193.484375 196.511719 186.964844 C 197.574219 178.695312 199.675781 170.664062 200.171875 168.75 C 200.457031 167.757812 200.738281 166.789062 201.070312 165.796875 C 201.800781 163.457031 202.417969 161.046875 203.292969 158.730469 C 204.140625 156.367188 204.96875 154.027344 205.820312 151.667969 C 206.621094 149.304688 207.710938 147.035156 208.632812 144.695312 C 209.597656 142.382812 210.542969 140.066406 211.65625 137.84375 C 212.742188 135.601562 213.78125 133.355469 214.867188 131.15625 C 216.003906 129.007812 217.136719 126.859375 218.246094 124.777344 C 219.332031 122.652344 220.585938 120.667969 221.71875 118.683594 C 222.878906 116.722656 224.011719 114.785156 225.191406 112.941406 C 224.390625 113.699219 197.125 137.773438 174.796875 187.699219 Z M 174.136719 234.550781 C 173.519531 234.3125 172.671875 233.910156 171.773438 233.25 C 171.300781 232.917969 170.828125 232.542969 170.378906 232.09375 C 169.90625 231.644531 169.410156 231.148438 169.007812 230.582031 C 168.582031 230.035156 168.132812 229.445312 167.804688 228.785156 C 167.425781 228.121094 167.09375 227.460938 166.789062 226.777344 C 166.527344 226.066406 166.292969 225.359375 166.054688 224.648438 C 165.84375 223.941406 165.722656 223.230469 165.582031 222.546875 C 165.371094 221.175781 165.324219 219.878906 165.394531 218.765625 C 165.441406 217.65625 165.582031 216.734375 165.746094 216.121094 C 165.890625 215.507812 166.007812 215.152344 166.007812 215.152344 C 166.007812 215.152344 166.292969 216.570312 166.742188 218.671875 C 166.859375 219.167969 167 219.710938 167.140625 220.328125 C 167.285156 220.894531 167.449219 221.507812 167.636719 222.121094 C 168.015625 223.351562 168.441406 224.625 168.984375 225.878906 C 170 228.382812 171.417969 230.675781 172.742188 232.28125 C 173.402344 233.085938 173.992188 233.722656 174.441406 234.171875 C 174.890625 234.621094 175.152344 234.878906 175.152344 234.878906 C 175.152344 234.878906 174.726562 234.785156 174.136719 234.550781 Z M 174.136719 234.550781 "/></g></svg>