<svg xmlns="http://www.w3.org/2000/svg" xmlns:xlink="http://www.w3.org/1999/xlink" width="500" zoomAndPan="magnify" viewBox="0 0 375 374.999991" height="500" preserveAspectRatio="xMidYMid meet" version="1.2"><defs><clipPath id="94adf50886"><path d="M 179 60 L 311.578125 60 L 311.578125 314 L 179 314 Z M 179 60 "/></clipPath><clipPath id="7f70a3cc1e"><path d="M 136 52.160156 L 166 52.160156 L 166 173 L 136 173 Z M 136 52.160156 "/></clipPath><clipPath id="5a4114e774"><path d="M 63.328125 191 L 130 191 L 130 298 L 63.328125 298 Z M 63.328125 191 "/></clipPath><clipPath id="b8aae17af2"><path d="M 99 52.160156 L 232 52.160156 L 232 322.910156 L 99 322.910156 Z M 99 52.160156 "/></clipPath></defs><g id="2a74fbc2a2"><g clip-rule="nonzero" clip-path="url(#94adf50886)"><path style=" stroke:none;fill-rule:nonzero;fill:#c6bbac;fill-opacity:1;" d="M 311.496094 228.796875 C 299.148438 230.371094 288.019531 229.996094 278.945312 218.777344 C 289.324219 218.796875 298.613281 218.757812 304.410156 209.992188 C 307.59375 205.175781 308.292969 201.472656 307.078125 195.121094 C 306.824219 193.777344 305 193.546875 304.429688 194.78125 L 304.410156 194.796875 C 300.007812 204.460938 287.339844 205.035156 281.003906 194.171875 C 275.601562 184.921875 278.195312 175.652344 282.308594 166.667969 C 286.625 157.328125 293.457031 149.167969 295.714844 138.933594 C 301.046875 115.023438 300.402344 92.28125 281.71875 73.4375 C 273.613281 65.261719 263.664062 61.628906 252.714844 60.75 C 251.390625 60.644531 250.441406 62.003906 250.976562 63.203125 L 250.996094 63.21875 C 258.726562 80.058594 253.105469 94.089844 236 101.136719 C 227.230469 104.753906 217.820312 105.308594 208.746094 107.492188 C 201.085938 109.335938 193.644531 111.75 187.558594 117.046875 C 178.828125 124.632812 177.359375 130.539062 180.867188 143.871094 C 182.316406 149.398438 183.675781 155.429688 186.824219 160.53125 C 186.683594 157.34375 186.609375 154.160156 186.394531 150.976562 C 186.144531 147.394531 187.199219 143.441406 188.453125 140.238281 C 193.015625 128.640625 201.550781 121.96875 213.738281 120.375 C 221.058594 119.410156 228.539062 119.640625 235.890625 118.835938 C 254.289062 116.851562 260.335938 112.269531 270.644531 92.976562 C 272.558594 108.082031 269.285156 121.804688 259.871094 132.292969 C 248.6875 144.730469 246.269531 157.523438 250.636719 173.054688 C 253.070312 181.753906 251.441406 183.292969 242.601562 184.1875 C 238.648438 184.597656 238.558594 186.925781 239.023438 189.628906 C 239.757812 193.832031 239.847656 197.589844 234.765625 199.039062 C 232.992188 199.539062 233.441406 200.917969 233.152344 202.117188 C 232.597656 204.515625 231.382812 207.054688 228.804688 207.109375 C 223.902344 207.179688 222.308594 210.367188 220.609375 214.015625 C 217.550781 220.566406 211.96875 221.871094 206.507812 217.09375 C 203.753906 214.679688 201.660156 211.546875 199.332031 208.683594 C 197.917969 206.929688 196.488281 205.285156 193.945312 205.695312 C 191.386719 206.125 190.582031 208.164062 190.027344 210.347656 C 186.753906 222.929688 186.414062 234.757812 188.8125 245.886719 C 189.597656 246.316406 190.582031 246.800781 191.746094 247.371094 L 192.710938 247.839844 C 193.785156 248.339844 194.878906 248.839844 195.96875 249.339844 C 201.355469 251.773438 207.476562 254.546875 212.59375 260.113281 C 219.230469 267.34375 222.648438 275.859375 222.738281 285.453125 C 227.605469 289.191406 233.621094 291.359375 238.773438 294.722656 C 247.039062 300.144531 252.195312 306.605469 249.1875 313.78125 C 258.0625 311.757812 260.605469 303.292969 257.921875 284.699219 C 270.894531 284.003906 279.125 290.640625 282.132812 305.101562 C 288.089844 297.441406 287.015625 289.566406 285.210938 282.015625 C 283.132812 273.390625 274.542969 269.847656 268.960938 263.800781 C 278.839844 259.703125 286.265625 262.492188 293.296875 272.640625 C 296.769531 265.5 294.78125 260.417969 284.082031 249.894531 C 294.496094 245.046875 304.964844 240.324219 311.496094 228.796875 Z M 311.496094 228.796875 "/></g><path style=" stroke:none;fill-rule:nonzero;fill:#c6bbac;fill-opacity:1;" d="M 174.210938 129.304688 C 176.785156 118.816406 182.835938 111.445312 193.160156 107.757812 C 203.234375 104.164062 213.792969 102.515625 224.0625 99.6875 C 229.988281 98.058594 235.570312 95.679688 240.707031 92.335938 C 250.691406 85.804688 252.5 72.472656 246.753906 63.847656 C 246.753906 66.457031 246.628906 67.28125 246.269531 68.640625 C 244.140625 76.925781 241.1875 80.023438 234.816406 82.582031 C 225.851562 86.195312 216.226562 86.929688 206.921875 89.078125 C 201.175781 90.402344 195.523438 91.921875 190.117188 94.300781 C 172.457031 102.085938 166.140625 116.296875 172.222656 135.175781 C 173.492188 131.882812 173.761719 131.113281 174.210938 129.304688 Z M 174.210938 129.304688 "/><path style=" stroke:none;fill-rule:nonzero;fill:#c6bbac;fill-opacity:1;" d="M 237.125 154.230469 C 239.003906 155.339844 242.65625 155.375 243.980469 152.996094 C 245.375 150.472656 246.484375 147.34375 242.835938 144.945312 C 239.398438 142.691406 229.898438 138.574219 224.511719 138.394531 C 222.453125 138.324219 222.203125 139.199219 223.203125 141.007812 C 226.230469 146.535156 233.136719 151.886719 237.125 154.230469 Z M 237.125 154.230469 "/><g clip-rule="nonzero" clip-path="url(#7f70a3cc1e)"><path style=" stroke:none;fill-rule:nonzero;fill:#c6bbac;fill-opacity:1;" d="M 165.65625 53.914062 C 165.710938 52.75 164.0625 52.464844 163.722656 53.574219 C 154.792969 82.902344 146.832031 112.554688 136.128906 141.542969 C 139.066406 149.6875 144.109375 163.464844 147.4375 172.019531 C 153.058594 150.507812 164.4375 77.910156 165.65625 53.914062 Z M 165.65625 53.914062 "/></g><g clip-rule="nonzero" clip-path="url(#5a4114e774)"><path style=" stroke:none;fill-rule:nonzero;fill:#c6bbac;fill-opacity:1;" d="M 119.503906 191.058594 C 118.84375 193.636719 118.003906 196.035156 117.109375 198.539062 C 114.835938 204.945312 112.847656 212.316406 109.214844 218.652344 C 104.296875 227.222656 98.246094 234.8125 90.660156 241.164062 C 89.53125 242.113281 88.371094 242.773438 86.8125 243.058594 C 73.015625 245.617188 63.28125 257.519531 63.996094 271.941406 C 64.855469 289.585938 84.09375 302.398438 100.539062 295.902344 C 120.023438 288.207031 124.910156 265.785156 110.398438 250.414062 C 109.234375 249.179688 108.589844 247.964844 108.644531 246.210938 C 109.109375 233.019531 112.722656 220.941406 121.027344 210.472656 C 123.925781 206.824219 126.914062 203.226562 129.4375 200.148438 C 127.234375 198.164062 124.910156 196.121094 122.496094 194.046875 C 121.367188 193.097656 120.382812 192.097656 119.503906 191.058594 Z M 112.671875 270.261719 C 112.632812 281.75 102.667969 291.519531 91.144531 291.375 C 79.457031 291.25 70.117188 281.585938 70.277344 269.792969 C 70.4375 257.839844 79.671875 248.929688 91.769531 249.035156 C 103.238281 249.144531 112.707031 258.773438 112.671875 270.261719 Z M 112.671875 270.261719 "/></g><g clip-rule="nonzero" clip-path="url(#b8aae17af2)"><path style=" stroke:none;fill-rule:nonzero;fill:#c6bbac;fill-opacity:1;" d="M 227.875 315.800781 C 222.132812 314.800781 218.085938 311.488281 215.761719 306.226562 C 213.148438 300.324219 211.894531 294.09375 212.234375 287.652344 C 212.664062 279.761719 210.195312 272.980469 204.878906 267.199219 C 200.316406 262.207031 194.019531 260.078125 188.167969 257.25 C 183.085938 254.78125 177.71875 252.5625 175.945312 246.496094 C 175.070312 243.453125 174.691406 240.269531 174.316406 237.101562 C 173.421875 229.515625 170.792969 222.300781 165.976562 216.703125 C 157.746094 207.074219 151.878906 196.230469 146.617188 184.921875 C 146.167969 183.972656 145.257812 182.023438 144.84375 181.144531 C 141.625 174.308594 129.417969 140.292969 129.417969 140.292969 C 118.898438 110.480469 110.378906 83.761719 101.503906 53.234375 C 101.164062 52.089844 99.480469 52.410156 99.570312 53.59375 L 99.570312 53.628906 C 100.859375 73.832031 104.1875 90.097656 107.175781 110.066406 C 110.308594 131.003906 113.921875 151.851562 117.949219 172.644531 C 119.203125 179.085938 121.042969 185.082031 126.304688 189.589844 C 134.269531 196.410156 141.964844 203.566406 149.066406 211.296875 C 158.585938 221.640625 166.585938 232.894531 168.429688 247.320312 C 169.429688 255.210938 167.910156 262.027344 163.238281 269.382812 C 159.734375 274.914062 158.300781 278.242188 157.675781 283.484375 C 155.546875 301.523438 172.902344 317.019531 190.566406 312.777344 C 200.371094 310.414062 209.425781 310.933594 216.886719 319.023438 C 219.875 322.261719 224.027344 322.582031 228.179688 321.4375 C 229.808594 320.992188 231.828125 320.453125 231.542969 318.234375 C 231.3125 316.320312 229.503906 316.085938 227.875 315.800781 Z M 131.761719 184.332031 C 128.507812 184.332031 125.875 181.699219 125.875 178.441406 C 125.875 175.1875 128.507812 172.554688 131.761719 172.554688 C 135.019531 172.554688 137.652344 175.1875 137.652344 178.441406 C 137.652344 181.683594 135.019531 184.332031 131.761719 184.332031 Z M 185.019531 307.265625 C 173.457031 307.300781 163.597656 297.585938 163.597656 286.132812 C 163.597656 274.5 173.171875 264.945312 184.839844 264.925781 C 196.738281 264.910156 205.988281 274.089844 206.027344 285.933594 C 206.078125 297.710938 196.683594 307.230469 185.019531 307.265625 Z M 185.019531 307.265625 "/></g></g></svg>