<?xml version="1.0" encoding="UTF-8"?>
<svg version="1.1" xmlns="http://www.w3.org/2000/svg" width="500" height="500">
<path d="M0 0 C2.01209751 -0.00218442 4.02364374 -0.02038115 6.03564453 -0.03930664 C23.82509225 -0.065911 23.82509225 -0.065911 28.14892578 4.12280273 C30.69553194 9.37517794 30.6154649 14.45587498 30.14892578 20.18530273 C28.61588946 24.34640133 27.83989221 25.72465845 24.14892578 28.18530273 C21.12133789 28.38061523 21.12133789 28.38061523 17.42626953 28.31030273 C16.76615372 28.30272949 16.1060379 28.29515625 15.42591858 28.28735352 C12.61134706 28.25485178 9.79736527 28.19916667 6.9831543 28.14428711 C-1.17358688 27.99892134 -8.91612758 28.05185572 -16.85107422 30.18530273 C-18.46255139 35.86817556 -19.15902423 40.92965737 -19.15185547 46.82202148 C-19.15614059 47.62331985 -19.16042572 48.42461823 -19.1648407 49.25019836 C-19.17054885 50.9368089 -19.1711104 52.62344404 -19.16674805 54.31005859 C-19.1636037 56.8489949 -19.18703659 59.38674563 -19.21240234 61.92553711 C-19.24773377 71.46117382 -18.5935215 79.98466707 -15.85107422 89.18530273 C-12.05942347 89.21423644 -8.26780095 89.23207875 -4.47607422 89.24780273 C-3.39583984 89.25618164 -2.31560547 89.26456055 -1.20263672 89.27319336 C0.34423828 89.27802734 0.34423828 89.27802734 1.92236328 89.28295898 C3.35201416 89.29081421 3.35201416 89.29081421 4.81054688 89.29882812 C7.17216985 89.34172872 7.17216985 89.34172872 9.14892578 88.18530273 C9.14892578 81.25530273 9.14892578 74.32530273 9.14892578 67.18530273 C3.6888771 67.30371609 3.6888771 67.30371609 -1.77026367 67.45556641 C-2.45306396 67.46305908 -3.13586426 67.47055176 -3.83935547 67.47827148 C-4.53585205 67.49398193 -5.23234863 67.50969238 -5.94995117 67.52587891 C-8.42942678 67.08169392 -9.28850696 66.11539385 -10.85107422 64.18530273 C-12.05927232 60.92597762 -12.04930081 57.63686357 -12.10107422 54.18530273 C-12.12685547 53.15405273 -12.15263672 52.12280273 -12.17919922 51.06030273 C-11.80537875 47.7849234 -11.20037397 46.47110789 -8.85107422 44.18530273 C-3.32567441 42.20921336 3.04440772 42.96040968 8.84790039 42.94506836 C11.07557338 42.93535008 13.3023279 42.90429666 15.52978516 42.87280273 C16.95360783 42.86627295 18.37743707 42.86102238 19.80126953 42.85717773 C21.09025146 42.84783203 22.3792334 42.83848633 23.70727539 42.82885742 C27.37079817 43.20828164 29.24329967 43.96872992 32.14892578 46.18530273 C38.75118875 59.38982868 35.39465297 87.45475669 32.09814453 101.44311523 C30.62948202 105.68591804 29.26868671 108.49817671 25.39892578 110.87280273 C15.29346849 114.5323922 4.07108273 114.39474289 -6.53857422 114.49780273 C-7.57095215 114.51544678 -8.60333008 114.53309082 -9.66699219 114.55126953 C-21.08282165 114.5412859 -31.25693462 112.77944233 -39.53857422 104.49780273 C-49.18736039 91.97293607 -47.19930193 70.96923772 -47.16674805 56.0390625 C-47.1635679 52.99174835 -47.18721486 49.94538983 -47.21240234 46.89819336 C-47.3050857 18.47809342 -47.3050857 18.47809342 -38.85107422 9.18530273 C-28.39157704 0.10769812 -13.08419007 -0.00158827 0 0 Z " fill="#E2C9C3" transform="translate(79.85107421875,186.814697265625)"/>
<path d="M0 0 C1.65 0.33 3.3 0.66 5 1 C9.2673914 12.73532635 6.42811678 25.28273561 4.5 37.25 C4.13904935 39.51163444 3.78095435 41.77358761 3.43005371 44.0368042 C3.21356066 45.43135732 2.99143009 46.82505294 2.7623291 48.21759033 C2.03224378 52.89527782 1.74274145 57.28317696 2 62 C5.04010474 66.02366804 8.37634336 68.09868325 13 70 C15.80718385 70.33820244 18.55299539 70.28701011 21.375 70.1875 C22.11105469 70.17396484 22.84710938 70.16042969 23.60546875 70.14648438 C25.40396743 70.11144869 27.20208422 70.05765288 29 70 C28.21625 69.13375 27.4325 68.2675 26.625 67.375 C20.93279252 60.50488613 21.30552292 52.51833284 22 44 C24.71647301 29.14886314 31.94146554 14.68852727 44.10546875 5.390625 C47.72909788 3.23186722 49.39779552 2.88578881 53.625 3.6875 C58.9090384 6.53554822 62.15731485 12.47194455 64 18 C64.03954234 20.33299825 64.04401732 22.66708189 64 25 C65.093125 24.9175 66.18625 24.835 67.3125 24.75 C71 25 71 25 72.6328125 26.5625 C74.42111748 29.75079231 74.9348018 32.64880576 75.5625 36.25 C75.74582886 37.28833984 75.74582886 37.28833984 75.93286133 38.34765625 C77.22172809 45.86251958 78.14383386 53.42544777 79 61 C77.68 61 76.36 61 75 61 C73.5859375 59.42578125 73.5859375 59.42578125 72.375 57.3125 C71.97023438 56.62800781 71.56546875 55.94351563 71.1484375 55.23828125 C69.93594401 52.87515617 68.94690944 50.48020776 68 48 C67.10539062 48.85722656 66.21078125 49.71445313 65.2890625 50.59765625 C43.80129736 71 43.80129736 71 33 71 C32.75378906 71.58652344 32.50757813 72.17304688 32.25390625 72.77734375 C29.22747726 78.1419484 23.17770188 81.84203885 17.5 83.9375 C11.36089883 85.64577163 5.70479983 86.01375227 -0.25 83.5 C-5.86878829 80.32124328 -8.18636932 75.47990174 -10.140625 69.5234375 C-11.47051247 63.84083229 -11.12593724 58.16753656 -10.875 52.375 C-10.82714355 51.19091553 -10.77928711 50.00683105 -10.72998047 48.78686523 C-10.16898267 37.62749697 -8.4195432 26.891451 -6 16 C-5.59201172 14.07607422 -5.59201172 14.07607422 -5.17578125 12.11328125 C-4.0759127 7.28899009 -3.20455522 3.85256777 0 0 Z M45.7578125 28.0390625 C41.23911028 33.07992587 36.13743084 40.25783751 35 47 C43.19720177 46.03562332 50.81978176 39.07088818 56 33 C56.42110482 29.96804532 56.49130464 28.67846831 54.6875 26.1875 C51.11328529 23.67231187 48.70497215 25.47695889 45.7578125 28.0390625 Z " fill="#E2C9C3" transform="translate(141,199)"/>
<path d="M0 0 C2.9985774 1.45876738 4.81163952 2.74668763 6.8125 5.4375 C8.78164025 11.34492074 8.98026216 18.05921353 7 24 C6.93259135 25.56118428 6.91485544 27.1250252 6.9375 28.6875 C6.94652344 29.49574219 6.95554688 30.30398437 6.96484375 31.13671875 C6.97644531 31.75160156 6.98804688 32.36648437 7 33 C7.60134766 31.98292969 7.60134766 31.98292969 8.21484375 30.9453125 C17.15116071 16.31487975 17.15116071 16.31487975 23 12 C26.92222452 12.11693589 28.40493687 12.36993315 31.125 15.25 C34.11229719 20.34597756 35.42479411 26.3527193 37 32 C40.74910611 30.71808915 42.95543561 29.3481484 45.625 26.4375 C48.81218957 23.14788657 52.08634944 20.0475072 55.5625 17.0625 C56.43003906 16.31097656 57.29757812 15.55945313 58.19140625 14.78515625 C61.5616231 12.64302955 64.02709153 12.13956353 68 12 C72.22585757 15.09896222 73.69270284 18.02527131 75 23 C75.16237778 25.78486623 75.23437565 28.46222484 75.1953125 31.2421875 C75.1924826 32.01055939 75.18965271 32.77893127 75.18673706 33.57058716 C75.17561311 36.00555521 75.1505236 38.44014462 75.125 40.875 C75.11496011 42.53384882 75.10583603 44.19270346 75.09765625 45.8515625 C75.07569937 49.90118579 75.04122406 53.95052887 75 58 C72.46361153 57.0318087 71.25171482 56.54340787 70.08691406 54.02880859 C69.89838867 53.24328613 69.70986328 52.45776367 69.515625 51.6484375 C69.30292969 50.79765625 69.09023438 49.946875 68.87109375 49.0703125 C68.66613281 48.18085938 68.46117187 47.29140625 68.25 46.375 C68.02957031 45.4778125 67.80914062 44.580625 67.58203125 43.65625 C67.03991063 41.44062658 66.51331016 39.22244288 66 37 C62.78800877 38.41847319 60.60164261 40.13695242 58.1015625 42.58984375 C57.37453125 43.29173828 56.6475 43.99363281 55.8984375 44.71679688 C54.38876179 46.19145433 52.88093212 47.66800414 51.375 49.14648438 C42.18876747 58 42.18876747 58 35.375 58 C31.21114409 56.76626491 30.20717925 55.70490803 28 52 C27.15345304 50.04186567 26.40256328 48.08041993 25.7109375 46.0625 C24.88752276 43.67369239 23.94436033 41.34328757 23 39 C22.50185791 39.89138672 22.50185791 39.89138672 21.99365234 40.80078125 C20.45999864 43.53720674 18.91757084 46.26859207 17.375 49 C16.85292969 49.93457031 16.33085937 50.86914062 15.79296875 51.83203125 C7.32073735 66.78918051 7.32073735 66.78918051 2.125 69.5 C1.42375 69.665 0.7225 69.83 0 70 C-4.30194965 66.27164364 -5.78583199 62.65374611 -6.24291992 56.98999023 C-6.23881104 55.94012939 -6.23470215 54.89026855 -6.23046875 53.80859375 C-6.22934082 52.62612061 -6.22821289 51.44364746 -6.22705078 50.2253418 C-6.21399902 48.975354 -6.20094727 47.72536621 -6.1875 46.4375 C-6.17960449 45.15077393 -6.17170898 43.86404785 -6.16357422 42.53833008 C-6.09486316 34.7512376 -5.94774878 26.96838178 -5.625 19.1875 C-5.5943042 18.36628662 -5.5636084 17.54507324 -5.53198242 16.69897461 C-5.27363617 11.56467708 -4.5863547 6.90474975 -3 2 C-2.01 1.34 -1.02 0.68 0 0 Z " fill="#E2C9C3" transform="translate(236,215)"/>
<path d="M0 0 C2.3125 0.5 2.3125 0.5 5 2 C10.76236194 13.09788225 10.32665084 27.16754677 10.625 39.375 C10.66333719 40.70835439 10.70239688 42.0416882 10.7421875 43.375 C10.83517897 46.58320577 10.92102164 49.79142401 11 53 C11.66314209 52.31873047 12.32628418 51.63746094 13.00952148 50.93554688 C13.89196533 50.03900391 14.77440918 49.14246094 15.68359375 48.21875 C16.55298584 47.33123047 17.42237793 46.44371094 18.31811523 45.52929688 C24.34252999 39.84764582 31.56801814 35.46931253 40 35 C43.74418219 35.60390035 46.02761735 36.09467823 48.8125 38.6875 C53.06578783 46.97021841 53.24098993 55.9206165 50.5 64.75 C47.68048763 71.72405887 43.03155842 75.34642268 36.5625 78.875 C28.23742915 81.50396974 21.46755846 80.91509266 13 79 C12.57847656 79.63808594 12.15695312 80.27617187 11.72265625 80.93359375 C11.17480469 81.75988281 10.62695312 82.58617187 10.0625 83.4375 C9.51722656 84.26121094 8.97195313 85.08492188 8.41015625 85.93359375 C7 88 7 88 6 89 C3.5625 89.25 3.5625 89.25 1 89 C-4.02065224 81.46902164 -2.27379477 69.18995003 -2.421875 60.29296875 C-2.43573494 59.50083796 -2.44959488 58.70870716 -2.46387482 57.8925724 C-2.53667486 53.71238433 -2.60424008 49.53214984 -2.66748047 45.35180664 C-2.7337728 41.03963842 -2.81839713 36.72802833 -2.9070549 32.41627026 C-2.97211053 29.09042969 -3.0236046 25.76447818 -3.07138824 22.43834877 C-3.09661086 20.84785391 -3.12695974 19.25743167 -3.16255951 17.66713524 C-3.21096755 15.44885563 -3.24014892 13.23110588 -3.26464844 11.01245117 C-3.28605896 9.7516423 -3.30746948 8.49083344 -3.32952881 7.19181824 C-2.9782462 3.78929256 -2.32282453 2.44536893 0 0 Z M37 57 C29.25955647 59.95544208 23.87972632 65.33644009 18 71 C18.99 71.495 18.99 71.495 20 72 C27.07002541 68.3816705 33.24491036 63.42528507 39 58 C38.34 57.67 37.68 57.34 37 57 Z " fill="#E2C9C3" transform="translate(319,181)"/>
<path d="M0 0 C3.03876086 5.80127074 3.74268389 11.41125129 4.47265625 17.890625 C4.80891415 21.15511487 4.80891415 21.15511487 7 24 C9.54515423 24.35980164 11.88403937 24.55774045 14.4375 24.625 C21.6994397 24.89981323 21.6994397 24.89981323 25 26 C23.9623913 29.41037565 22.77114608 30.13929076 19.65625 32.03515625 C18.27700759 32.72345126 16.89126246 33.39883712 15.5 34.0625 C14.49453125 34.57006836 14.49453125 34.57006836 13.46875 35.08789062 C8.14729047 37.69318852 2.70667687 39.435385 -3 41 C-3.1177595 45.10391862 -3.18776774 49.20739356 -3.25 53.3125 C-3.28351563 54.46041016 -3.31703125 55.60832031 -3.3515625 56.79101562 C-3.47354127 67.55564213 -1.18021447 77.39840728 6.375 85.46875 C8.95649654 87.888903 10.65266555 88.95913712 14.1875 89.375 C17.07379225 89.07988718 17.07379225 89.07988718 20 88 C19.25531915 95.74468085 19.25531915 95.74468085 16 99 C11.40631519 100.53122827 7.58211535 100.56033252 3 98.9375 C-7.08614413 92.42353192 -12.06639065 82.85411903 -14.8125 71.3125 C-16.34415139 63.26682536 -16.71322817 55.16805279 -17 47 C-17.86882812 47.2165625 -18.73765625 47.433125 -19.6328125 47.65625 C-20.78523438 47.9346875 -21.93765625 48.213125 -23.125 48.5 C-24.26195312 48.7784375 -25.39890625 49.056875 -26.5703125 49.34375 C-29.86181837 49.97355978 -32.66360269 50.28950247 -36 50 C-39.10164769 47.44975635 -40.72566416 45.82300753 -42 42 C-42.43536989 36.68443745 -42.21954212 31.93231582 -40 27 C-37.59914076 25.79957038 -36.03096999 25.85977705 -33.3515625 25.82421875 C-32.42859375 25.80037109 -31.505625 25.77652344 -30.5546875 25.75195312 C-28.60959467 25.70916108 -26.66421464 25.67781466 -24.71875 25.65820312 C-19.32428318 25.55209568 -19.32428318 25.55209568 -14.49609375 23.421875 C-12.56186119 20.29074135 -11.45600316 17.07067757 -10.4375 13.5625 C-9.09105658 9.04324932 -7.74502619 4.89546157 -5 1 C-3 0 -3 0 0 0 Z " fill="#E2C9C3" transform="translate(438,174)"/>
<path d="M0 0 C2.5625 1.0625 2.5625 1.0625 4.375 3.9375 C7.54614216 12.77067796 5.15727412 22.59564875 3.1875 31.4375 C2.96578125 32.49066406 2.7440625 33.54382813 2.515625 34.62890625 C1.50831135 39.30402666 0.43628919 43.64919408 -1.4375 48.0625 C-2.4275 47.7325 -3.4175 47.4025 -4.4375 47.0625 C-5.40645327 44.43410354 -5.60378815 41.82592728 -5.75390625 39.04296875 C-5.79604248 38.27500977 -5.83817871 37.50705078 -5.8815918 36.71582031 C-5.9206665 35.90209961 -5.95974121 35.08837891 -6 34.25 C-6.0410083 33.40920898 -6.0820166 32.56841797 -6.12426758 31.70214844 C-7.12511961 9.79530028 -7.12511961 9.79530028 -4.4375 2.0625 C-2.4375 0.0625 -2.4375 0.0625 0 0 Z " fill="#E2C9C3" transform="translate(383.4375,212.9375)"/>
<path d="M0 0 C3.09373892 3.89447135 3.43223058 7.10997517 3.4375 12 C3.45683594 13.19625 3.47617187 14.3925 3.49609375 15.625 C2.92168283 19.53280341 1.69528727 21.18195708 -1 24 C-3.25 24 -3.25 24 -6 23 C-9.69734348 18.23237288 -11.33766627 11.98794856 -11 6 C-8.98085579 0.62868432 -5.5781319 -0.81347757 0 0 Z " fill="#E2C9C3" transform="translate(387,184)"/>
</svg>
