<?xml version="1.0" encoding="UTF-8"?>
<svg version="1.1" xmlns="http://www.w3.org/2000/svg" width="1440" height="900">
<path d="M0 0 C475.2 0 950.4 0 1440 0 C1440 297 1440 594 1440 900 C964.8 900 489.6 900 0 900 C0 603 0 306 0 0 Z " fill="#633E56" transform="translate(0,0)"/>
<path d="M0 0 C79.53 0 159.06 0 241 0 C241 13.66153846 241 13.66153846 240.5625 19.625 C240.44068359 21.37683594 240.44068359 21.37683594 240.31640625 23.1640625 C240 26 240 26 239 28 C236.20095348 44.30294897 235.55872154 61.0387985 234.26989746 77.51800537 C233.99531143 81.02690381 233.71920145 84.53566407 233.43873596 88.0440979 C233.23017476 90.65689881 233.02525374 93.26999335 232.82432556 95.88339233 C232.73075272 97.05286407 232.63717987 98.22233582 232.54077148 99.42724609 C232.41991432 100.97368301 232.41991432 100.97368301 232.2966156 102.55136108 C232 105 232 105 231 107 C230.87376275 108.70208857 230.80610671 110.40867284 230.76708984 112.11499023 C230.73757233 113.18177505 230.70805481 114.24855988 230.67764282 115.34767151 C230.64738007 116.51040085 230.61711731 117.67313019 230.5859375 118.87109375 C230.16707431 132.10918927 229.17130687 145.24418394 227.95889282 158.43035889 C227.38101744 164.71658247 226.82477803 171.00471168 226.26953125 177.29296875 C226.15894882 178.5419696 226.04836639 179.79097046 225.93443298 181.07781982 C224.77134376 194.35831052 223.83443422 207.65309389 222.98876953 220.95727539 C222.49864587 228.46092258 221.81173077 235.81159203 220.45727539 243.21875 C219.64859655 248.13731343 219.38453786 253.09253687 219.0625 258.0625 C218.44772975 266.76020027 217.65863488 275.4050373 216.625 284.0625 C214.73947043 299.95236074 213.58123699 315.90774679 212.35791016 331.85961914 C212.27522888 332.91636337 212.19254761 333.9731076 212.10736084 335.06187439 C211.94983075 337.07610781 211.79609402 339.09064227 211.64654541 341.10548401 C211.57611023 342.00024948 211.50567505 342.89501495 211.43310547 343.81689453 C211.37331512 344.60371613 211.31352478 345.39053772 211.25192261 346.20120239 C211 348 211 348 210 349 C209.78110398 351.40899631 209.62101655 353.79648543 209.5 356.2109375 C209.45939453 356.93487701 209.41878906 357.65881653 209.37695312 358.4046936 C209.24686227 360.72790986 209.12280032 363.05138767 209 365.375 C208.87701925 367.69145774 208.75262405 370.00778443 208.62304688 372.32388306 C208.54230685 373.76717105 208.46535605 375.21067705 208.39257812 376.65438843 C208.22488557 379.65432911 207.95596334 382.13210999 207 385 C206.80722747 386.64893006 206.65797712 388.30312958 206.53515625 389.95874023 C206.45837646 390.96666122 206.38159668 391.97458221 206.30249023 393.01304626 C206.18369507 394.64434227 206.18369507 394.64434227 206.0625 396.30859375 C205.93500366 397.98599388 205.93500366 397.98599388 205.80493164 399.69728088 C205.53299869 403.27709159 205.26596891 406.85724155 205 410.4375 C204.64978633 415.14483946 204.29494967 419.85179893 203.9375 424.55859375 C203.81870483 426.18685341 203.81870483 426.18685341 203.69750977 427.8480072 C203.62072998 428.85908035 203.5439502 429.8701535 203.46484375 430.91186523 C203.399021 431.7999437 203.33319824 432.68802216 203.26538086 433.60301208 C203.01961788 435.82280628 202.56159978 437.84361959 202 440 C201.81941616 442.15605088 201.68162218 444.31582743 201.5703125 446.4765625 C201.49876953 447.77400391 201.42722656 449.07144531 201.35351562 450.40820312 C201.31653564 451.095354 201.27955566 451.78250488 201.24145508 452.49047852 C200.63878527 463.53689806 199.84636862 474.51491348 198.5 485.5 C196.63940529 500.77194684 195.28287862 516.02421704 194.50390625 531.390625 C194.46168442 532.22047913 194.41946259 533.05033325 194.3759613 533.90533447 C194.16788375 538.03704286 193.96913528 542.16891717 193.78491211 546.30175781 C193.71083985 547.85742498 193.63670495 549.41308916 193.5625 550.96875 C193.53543472 551.64117737 193.50836945 552.31360474 193.48048401 553.00640869 C193.24315345 557.84229069 192.6837399 562.59867647 192.0546875 567.39941406 C190.98265134 575.62849464 190.32033384 583.86407544 189.73849487 592.14057159 C189.55717639 594.71624827 189.37019479 597.29146371 189.18188477 599.86663818 C188.64853288 607.17520037 188.12594938 614.48452622 187.60449219 621.79394531 C187.28267288 626.29962136 186.95535095 630.80487304 186.62496948 635.30992889 C186.44232609 637.82418928 186.26610835 640.33884538 186.09008789 642.85357666 C185.54115065 650.46408384 184.85413184 657.93828562 183.44532776 665.44975281 C182.62966862 670.12076732 182.30154965 674.83849437 181.9375 679.5625 C181.85443604 680.59028564 181.77137207 681.61807129 181.68579102 682.67700195 C181.10082111 690.11940662 180.64790006 697.56455311 180.34155273 705.02368164 C180.2164179 707.87553965 180.07475068 710.63431189 179.50219727 713.43530273 C179.0113575 715.94199778 178.81421926 718.28619735 178.71875 720.8359375 C178.68136719 721.73570312 178.64398438 722.63546875 178.60546875 723.5625 C178.57066406 724.490625 178.53585938 725.41875 178.5 726.375 C178.27485902 732.32872806 177.87504341 738.10029324 177 744 C176.72096037 747.58617593 176.56606295 751.17884827 176.39453125 754.77148438 C176.17783534 758.92233183 175.70131939 762.89728156 175 767 C174.95987602 768.43693991 174.95670515 769.87565213 175 771.3125 C175.06308939 775.9495703 174.58394853 780.40140534 174 785 C174.66 783.68 175.32 782.36 176 781 C176.33 781 176.66 781 177 781 C177.2657414 789.9171004 176.74393016 798.52793418 175.78393555 807.3815918 C175.18717755 812.93919743 174.73444434 818.48095296 174.4375 824.0625 C174.09697186 830.39401467 173.63410289 836.69107762 173 843 C172.86567699 844.37758386 172.73158317 845.75519008 172.59765625 847.1328125 C171.59731918 857.34414239 170.5272369 867.54785384 169.4375 877.75 C169.31068848 878.93972412 169.18387695 880.12944824 169.05322266 881.35522461 C168.70787283 884.57081014 168.35592128 887.78556938 168 891 C167.9086377 891.84755859 167.81727539 892.69511719 167.72314453 893.56835938 C167.11731095 898.88268905 167.11731095 898.88268905 166 900 C111.22 900 56.44 900 0 900 C0 603 0 306 0 0 Z " fill="#47253E" transform="translate(0,0)"/>
<path d="M0 0 C1.32 0 2.64 0 4 0 C9.57320492 16.71961476 5.67142019 36.8046076 0 53 C-0.391875 54.175625 -0.78375 55.35125 -1.1875 56.5625 C-1.455625 57.366875 -1.72375 58.17125 -2 59 C-2.66 59 -3.32 59 -4 59 C-4.2475 59.94875 -4.495 60.8975 -4.75 61.875 C-5.89891338 65.93339188 -7.47468803 69.77896943 -9.09765625 73.66796875 C-9.91104371 75.77009998 -10.51012776 77.80315027 -11 80 C-12.65 80 -14.3 80 -16 80 C-16 77.36 -16 74.72 -16 72 C-14.68 72 -13.36 72 -12 72 C-11.67 70.02 -11.34 68.04 -11 66 C-10.34 66 -9.68 66 -9 66 C-8.79029441 61.85906302 -8.79029441 61.85906302 -10 58 C-9.05644539 56.34877943 -8.1065707 54.7007672 -7.12109375 53.07421875 C-5.22512047 49.56633787 -4.15669741 45.80162969 -3 42 C-2.67 41.01 -2.34 40.02 -2 39 C-1.34 39 -0.68 39 0 39 C0.33 36.69 0.66 34.38 1 32 C0.34 31.67 -0.32 31.34 -1 31 C-0.66355469 30.04480469 -0.32710937 29.08960938 0.01953125 28.10546875 C1.34572151 23.45502398 1.03280876 19.09112769 0.6875 14.3125 C0.63916016 13.47138672 0.59082031 12.63027344 0.54101562 11.76367188 C0.2775548 7.23379863 0.2775548 7.23379863 -0.58666992 2.79370117 C-0.72306885 2.20177979 -0.85946777 1.6098584 -1 1 C-0.67 0.67 -0.34 0.34 0 0 Z " fill="#58324A" transform="translate(1357,456)"/>
<path d="M0 0 C1.32 0 2.64 0 4 0 C7.52814757 10.5844427 8.29491455 27.99830658 3.5 38.1875 C3.005 38.785625 2.51 39.38375 2 40 C1.67 40 1.34 40 1 40 C1 37.36 1 34.72 1 32 C0.34 31.67 -0.32 31.34 -1 31 C-0.66355469 30.04480469 -0.32710937 29.08960938 0.01953125 28.10546875 C1.34572151 23.45502398 1.03280876 19.09112769 0.6875 14.3125 C0.63916016 13.47138672 0.59082031 12.63027344 0.54101562 11.76367188 C0.2775548 7.23379863 0.2775548 7.23379863 -0.58666992 2.79370117 C-0.72306885 2.20177979 -0.85946777 1.6098584 -1 1 C-0.67 0.67 -0.34 0.34 0 0 Z " fill="#502C46" transform="translate(1357,456)"/>
<path d="M0 0 C0.66 0 1.32 0 2 0 C2.05441656 1.89551022 2.09298035 3.7914792 2.125 5.6875 C2.14820313 6.74324219 2.17140625 7.79898438 2.1953125 8.88671875 C2 12 2 12 0.99121094 14.36010742 C-0.10096749 17.26890676 -0.17678156 19.26198063 -0.0546875 22.3515625 C-0.03019531 23.36863281 -0.00570312 24.38570312 0.01953125 25.43359375 C0.08907914 27.53806137 0.16701494 29.64227085 0.25390625 31.74609375 C0.4150351 39.28123719 -0.95693689 45.11001358 -4 52 C-5.01820075 48.56074414 -4.78177958 45.97389183 -4.25390625 42.42578125 C-3.84281878 38.49831481 -3.98170883 34.58033762 -4.0625 30.63671875 C-4 28 -4 28 -3 25 C-2.79436192 22.24673463 -2.62723862 19.50683666 -2.5 16.75 C-1.79532967 1.79532967 -1.79532967 1.79532967 0 0 Z " fill="#5A3450" transform="translate(178,736)"/>
<path d="M0 0 C4.9098194 0.46760185 8.33125554 1.97980801 11.9375 5.375 C12.4375 8.1875 12.4375 8.1875 11.9375 10.375 C13.2575 10.705 14.5775 11.035 15.9375 11.375 C16.2675 12.695 16.5975 14.015 16.9375 15.375 C16.2775 15.375 15.6175 15.375 14.9375 15.375 C14.9375 14.715 14.9375 14.055 14.9375 13.375 C13.6175 13.375 12.2975 13.375 10.9375 13.375 C10.9375 12.715 10.9375 12.055 10.9375 11.375 C10.195 11.25125 9.4525 11.1275 8.6875 11 C6.13608515 10.42013299 4.2107427 9.63791261 1.9375 8.375 C1.9375 7.715 1.9375 7.055 1.9375 6.375 C1.31875 6.2925 0.7 6.21 0.0625 6.125 C-2.0625 5.375 -2.0625 5.375 -3.3125 3.3125 C-3.68375 2.3534375 -3.68375 2.3534375 -4.0625 1.375 C-3.0625 0.375 -3.0625 0.375 0 0 Z " fill="#5D3248" transform="translate(1344.0625,575.625)"/>
<path d="M0 0 C3.26566506 4.89849759 3.09311493 8.31998909 3 14 C-4.38461538 16.21538462 -4.38461538 16.21538462 -7.5 15.125 C-7.995 14.75375 -8.49 14.3825 -9 14 C-8.34 13.34 -7.68 12.68 -7 12 C-6.731875 11.278125 -6.46375 10.55625 -6.1875 9.8125 C-4.61659599 6.09193787 -2.41208829 3.23727638 0 0 Z " fill="#5D384F" transform="translate(957,776)"/>
<path d="M0 0 C-0.66 0 -1.32 0 -2 0 C-2 1.32 -2 2.64 -2 4 C-2.66386719 4.10957031 -3.32773437 4.21914062 -4.01171875 4.33203125 C-8.96163754 5.22084878 -12.8418067 6.04549423 -17 9 C-18.43374615 9.90182903 -19.87152631 10.79726495 -21.3125 11.6875 C-22.54194398 12.45789096 -23.77120566 13.22857328 -25 14 C-23.68 14.66 -22.36 15.32 -21 16 C-23.31 16 -25.62 16 -28 16 C-27.90234375 13.2265625 -27.90234375 13.2265625 -27 10 C-24.19140625 8.0234375 -24.19140625 8.0234375 -20.5625 6.375 C-19.93303467 6.08431641 -19.30356934 5.79363281 -18.6550293 5.49414062 C-16.77993485 4.63798971 -14.89273847 3.81625617 -13 3 C-11.99453125 2.54882812 -10.9890625 2.09765625 -9.953125 1.6328125 C-3.45916882 -1.15305627 -3.45916882 -1.15305627 0 0 Z " fill="#4F2D48" transform="translate(835,122)"/>
<path d="M0 0 C0.99 0.495 0.99 0.495 2 1 C3.33393279 8.52539443 3.13498778 16.38068993 3 24 C2.01 24 1.02 24 0 24 C0 16.08 0 8.16 0 0 Z " fill="#58344E" transform="translate(1352,876)"/>
<path d="M0 0 C0.66 0.33 1.32 0.66 2 1 C2.921875 3.984375 2.921875 3.984375 3.75 7.75 C4.03359375 8.98234375 4.3171875 10.2146875 4.609375 11.484375 C5.01333258 15.11999324 4.67990468 16.81061576 3 20 C2.34 20 1.68 20 1 20 C0.34 18.68 -0.32 17.36 -1 16 C-0.34 16 0.32 16 1 16 C1.33 14.68 1.66 13.36 2 12 C1.34 12 0.68 12 0 12 C0 8.04 0 4.08 0 0 Z " fill="#5E364B" transform="translate(1351,700)"/>
<path d="M0 0 C0.99 0 1.98 0 3 0 C3.33 0.99 3.66 1.98 4 3 C3.01 3.33 2.02 3.66 1 4 C1.33 4.99 1.66 5.98 2 7 C0.0625 10.1875 0.0625 10.1875 -2 13 C-3.65 12.67 -5.3 12.34 -7 12 C-6.67 9.36 -6.34 6.72 -6 4 C-5.01 5.32 -4.02 6.64 -3 8 C-3 6.35 -3 4.7 -3 3 C-2.01 2.67 -1.02 2.34 0 2 C0 1.34 0 0.68 0 0 Z " fill="#59364E" transform="translate(249,124)"/>
<path d="M0 0 C4.04284809 6.06427213 4.71687576 15.83124241 4 23 C3.15901653 25.45489394 2.14582229 27.66061282 1 30 C0.34 30 -0.32 30 -1 30 C-1.33 25.71 -1.66 21.42 -2 17 C0 20 0 20 1 23 C1.09928082 15.24506486 1.06059488 7.68931285 0 0 Z " fill="#5B3349" transform="translate(1361,634)"/>
<path d="M0 0 C0.33 1.32 0.66 2.64 1 4 C-0.32 4.99 -1.64 5.98 -3 7 C-2.67 5.68 -2.34 4.36 -2 3 C-1.34 3 -0.68 3 0 3 C0 2.01 0 1.02 0 0 Z M-6 7 C-5.01 7.33 -4.02 7.66 -3 8 C-3.59683594 8.24105469 -4.19367188 8.48210938 -4.80859375 8.73046875 C-7.43857183 10.25407459 -8.4495502 11.75328632 -10.0625 14.3125 C-10.57554688 15.11171875 -11.08859375 15.9109375 -11.6171875 16.734375 C-12.68508807 18.4840426 -13.69824874 20.26719215 -14.6875 22.0625 C-15.3371875 23.0215625 -15.3371875 23.0215625 -16 24 C-16.99 24 -17.98 24 -19 24 C-16.94863132 20.51642575 -14.79565409 17.14019157 -12.5 13.8125 C-11.9121875 12.95269531 -11.324375 12.09289062 -10.71875 11.20703125 C-9 9 -9 9 -6 7 Z " fill="#5C364A" transform="translate(1347,731)"/>
<path d="M0 0 C0.33 0 0.66 0 1 0 C1.38133299 1.9914056 1.71325582 3.99279077 2 6 C1.67 6.33 1.34 6.66 1 7 C0.86511801 9.96740378 0.9091391 12.59617379 1.5625 15.5 C2.09589541 18.54797376 1.62975044 20.99119233 1 24 C-0.32 23.67 -1.64 23.34 -3 23 C-2.01 15.41 -1.02 7.82 0 0 Z " fill="#6B4863" transform="translate(169,876)"/>
<path d="M0 0 C1.64666203 0.1135629 3.29236082 0.24117381 4.9375 0.375 C5.85402344 0.44460937 6.77054687 0.51421875 7.71484375 0.5859375 C8.84599609 0.79089844 8.84599609 0.79089844 10 1 C10.33 1.66 10.66 2.32 11 3 C10.34 3.66 9.68 4.32 9 5 C8.67 4.67 8.34 4.34 8 4 C7.01 5.485 7.01 5.485 6 7 C5.34 7 4.68 7 4 7 C4 5.68 4 4.36 4 3 C3.54625 3.825 3.0925 4.65 2.625 5.5 C2.08875 6.325 1.5525 7.15 1 8 C0.34 8 -0.32 8 -1 8 C-0.67 5.36 -0.34 2.72 0 0 Z " fill="#512E46" transform="translate(308,96)"/>
<path d="M0 0 C-0.41756039 4.87153789 -2.49732992 6.75362285 -6 10 C-6.99 11.485 -6.99 11.485 -8 13 C-8.99 12.67 -9.98 12.34 -11 12 C-5.46153846 0 -5.46153846 0 0 0 Z " fill="#593146" transform="translate(964,459)"/>
<path d="M0 0 C1.4540625 0.0309375 1.4540625 0.0309375 2.9375 0.0625 C-0.71395279 4.18771724 -5.78451194 5.77589995 -11.20703125 6.25 C-12.82672714 6.25 -14.44609358 6.16567488 -16.0625 6.0625 C-13.72384722 3.30138091 -11.97021821 2.5703974 -8.4375 1.9375 C-5.22063579 1.34409786 -3.15768139 0.06444248 0 0 Z " fill="#5C364E" transform="translate(344.0625,143.9375)"/>
<path d="M0 0 C0.99 0.33 1.98 0.66 3 1 C1.625 3.5 1.625 3.5 0 6 C-0.66 6 -1.32 6 -2 6 C-2.24492188 6.71542969 -2.48984375 7.43085937 -2.7421875 8.16796875 C-4.15359676 11.34583121 -5.91281519 13.63646999 -8.125 16.3125 C-8.84945313 17.19550781 -9.57390625 18.07851563 -10.3203125 18.98828125 C-11.15175781 19.98408203 -11.15175781 19.98408203 -12 21 C-12.66 20.67 -13.32 20.34 -14 20 C-10.22344915 14.92309831 -6.37627898 9.91743405 -2.41796875 4.98046875 C-0.82155649 2.95659407 -0.82155649 2.95659407 0 0 Z " fill="#61394C" transform="translate(1325,758)"/>
<path d="M0 0 C0.33 0 0.66 0 1 0 C1 6.6 1 13.2 1 20 C0.01 20 -0.98 20 -2 20 C-2.05379226 17.04142591 -2.09357093 14.08382279 -2.125 11.125 C-2.14175781 10.28324219 -2.15851563 9.44148437 -2.17578125 8.57421875 C-2.18222656 7.76855469 -2.18867187 6.96289062 -2.1953125 6.1328125 C-2.21102295 5.01737061 -2.21102295 5.01737061 -2.22705078 3.87939453 C-2 2 -2 2 0 0 Z " fill="#592F44" transform="translate(1341,653)"/>
<path d="M0 0 C0.66 0.99 1.32 1.98 2 3 C-1.75 8.875 -1.75 8.875 -4 10 C-4.33 9.34 -4.66 8.68 -5 8 C-6.65 9.32 -8.3 10.64 -10 12 C-8.55922954 8.63820226 -6.75249979 6.40843732 -4 4 C-3.34 4 -2.68 4 -2 4 C-1.34 2.68 -0.68 1.36 0 0 Z " fill="#764F65" transform="translate(245,478)"/>
<path d="M0 0 C1.21816406 0.03480469 1.21816406 0.03480469 2.4609375 0.0703125 C3.68683594 0.09738281 3.68683594 0.09738281 4.9375 0.125 C5.87722656 0.15980469 5.87722656 0.15980469 6.8359375 0.1953125 C6.5059375 1.8453125 6.1759375 3.4953125 5.8359375 5.1953125 C4.5159375 5.1953125 3.1959375 5.1953125 1.8359375 5.1953125 C0.49429671 5.4934549 -0.84257423 5.81774442 -2.1640625 6.1953125 C-2.1640625 5.2053125 -2.1640625 4.2153125 -2.1640625 3.1953125 C-2.8240625 2.8653125 -3.4840625 2.5353125 -4.1640625 2.1953125 C-2.1640625 0.1953125 -2.1640625 0.1953125 0 0 Z " fill="#54324D" transform="translate(674.1640625,431.8046875)"/>
<path d="M0 0 C0.66 0 1.32 0 2 0 C1.91253716 1.43861294 1.80434652 2.87597508 1.6875 4.3125 C1.62949219 5.11300781 1.57148438 5.91351563 1.51171875 6.73828125 C0.91793306 9.36272334 0.04219706 10.30820672 -2 12 C-3.1171875 10.265625 -3.1171875 10.265625 -4 8 C-3.3203125 5.859375 -3.3203125 5.859375 -2.125 3.75 C-1.73570312 3.04359375 -1.34640625 2.3371875 -0.9453125 1.609375 C-0.63335937 1.07828125 -0.32140625 0.5471875 0 0 Z M-6 10 C-5.01 10.495 -5.01 10.495 -4 11 C-4.99 11.495 -4.99 11.495 -6 12 C-6 11.34 -6 10.68 -6 10 Z " fill="#64364B" transform="translate(358,378)"/>
<path d="M0 0 C0.66 0.33 1.32 0.66 2 1 C1.88573491 3.41760876 1.75900339 5.83347218 1.625 8.25 C1.5940625 8.93191406 1.563125 9.61382813 1.53125 10.31640625 C1.31740626 13.98739038 0.98922945 16.86251616 -1 20 C-1.02703562 17.41659616 -1.04685611 14.83347692 -1.0625 12.25 C-1.07087891 11.52039063 -1.07925781 10.79078125 -1.08789062 10.0390625 C-1.10391684 6.51329442 -0.95292713 3.38965084 0 0 Z " fill="#6A4662" transform="translate(181,732)"/>
<path d="M0 0 C0.66 0.33 1.32 0.66 2 1 C2 2.65 2 4.3 2 6 C-2.455 7.485 -2.455 7.485 -7 9 C-6.67 7.68 -6.34 6.36 -6 5 C-5.01 4.67 -4.02 4.34 -3 4 C-1.31461399 2.00334686 -1.31461399 2.00334686 0 0 Z " fill="#5C3644" transform="translate(1238,723)"/>
<path d="M0 0 C0.66 0 1.32 0 2 0 C2.95465783 2.16967689 3.14401212 3.56328793 2.3984375 5.82421875 C1.64129615 7.5684743 0.82390802 9.28627131 0 11 C-0.99 11 -1.98 11 -3 11 C-2.69078116 9.54096742 -2.37751201 8.08279278 -2.0625 6.625 C-1.88847656 5.81289063 -1.71445312 5.00078125 -1.53515625 4.1640625 C-1 2 -1 2 0 0 Z " fill="#5D364B" transform="translate(971,744)"/>
<path d="M0 0 C0.33 0 0.66 0 1 0 C0.85780436 2.20857055 0.71108153 4.41684987 0.5625 6.625 C0.48128906 7.85476563 0.40007812 9.08453125 0.31640625 10.3515625 C0.03336056 13.61532388 -0.41038953 16.77943859 -1 20 C-3 18 -3 18 -3.25 14.25 C-3.16219334 10.52159407 -2.34928156 7.49225815 -1 4 C-0.65023242 2.67088318 -0.30903983 1.33917261 0 0 Z " fill="#6D4862" transform="translate(197,546)"/>
<path d="M0 0 C0.66 0.33 1.32 0.66 2 1 C1.01 1.66 0.02 2.32 -1 3 C-0.67 3.99 -0.34 4.98 0 6 C-3.21451269 7.60725635 -6.43612536 7.05748185 -10 7 C-7.01767477 3.67356033 -4.13629913 1.70847138 0 0 Z " fill="#5A3853" transform="translate(818,130)"/>
<path d="M0 0 C0.33 0 0.66 0 1 0 C1.19412181 1.47831221 1.38012131 2.95769316 1.5625 4.4375 C1.66691406 5.26121094 1.77132812 6.08492188 1.87890625 6.93359375 C1.91886719 7.61550781 1.95882812 8.29742187 2 9 C1.67 9.33 1.34 9.66 1 10 C0.84344973 11.48638992 0.74933057 12.97949127 0.68359375 14.47265625 C0.64169922 15.37177734 0.59980469 16.27089844 0.55664062 17.19726562 C0.51732422 18.14279297 0.47800781 19.08832031 0.4375 20.0625 C0.39431641 21.01189453 0.35113281 21.96128906 0.30664062 22.93945312 C0.20020724 25.29281353 0.09818992 27.64628354 0 30 C-0.33 30 -0.66 30 -1 30 C-1.02934711 26.50001799 -1.04691445 23.00006821 -1.0625 19.5 C-1.07087891 18.51773438 -1.07925781 17.53546875 -1.08789062 16.5234375 C-1.10659124 10.91325243 -0.838879 5.54849101 0 0 Z " fill="#6B4662" transform="translate(234,82)"/>
<path d="M0 0 C0 3 0 3 -2.625 5.91796875 C-3.74249406 7.01550756 -4.86785643 8.10507895 -6 9.1875 C-6.57234375 9.74630859 -7.1446875 10.30511719 -7.734375 10.88085938 C-9.14962788 12.26073093 -10.57397155 13.63126734 -12 15 C-12.33 14.01 -12.66 13.02 -13 12 C-12.48050781 11.55269531 -11.96101563 11.10539063 -11.42578125 10.64453125 C-7.47320346 7.21798969 -3.64172918 3.75553321 0 0 Z " fill="#60384A" transform="translate(1239,794)"/>
<path d="M0 0 C3.63 0.33 7.26 0.66 11 1 C8 4 8 4 4.4375 4.25 C1 4 1 4 -1 3 C-0.67 2.01 -0.34 1.02 0 0 Z " fill="#5A344D" transform="translate(365,184)"/>
<path d="M0 0 C0.33 0.99 0.66 1.98 1 3 C1.66 3 2.32 3 3 3 C3 2.34 3 1.68 3 1 C4.65 0.67 6.3 0.34 8 0 C8.33 0.99 8.66 1.98 9 3 C7.35 2.67 5.7 2.34 4 2 C3.67 3.65 3.34 5.3 3 7 C0.69 7.33 -1.62 7.66 -4 8 C-2.68 7.34 -1.36 6.68 0 6 C0 4.02 0 2.04 0 0 Z " fill="#553149" transform="translate(264,117)"/>
<path d="M0 0 C0.33 0 0.66 0 1 0 C1.05404449 2.75026417 1.09369306 5.49946203 1.125 8.25 C1.15013672 9.41595703 1.15013672 9.41595703 1.17578125 10.60546875 C1.23662606 17.72431144 1.23662606 17.72431144 -1 21 C-2.07558786 16.17113701 -1.81674203 11.95964459 -1.0625 7.125 C-0.96259766 6.43664062 -0.86269531 5.74828125 -0.75976562 5.0390625 C-0.51463547 3.35817003 -0.25845587 1.67889513 0 0 Z " fill="#6B4762" transform="translate(177,787)"/>
<path d="M0 0 C0.33 1.98 0.66 3.96 1 6 C-0.65 6.66 -2.3 7.32 -4 8 C-3.979375 7.21625 -3.95875 6.4325 -3.9375 5.625 C-3.81315937 3.01885039 -3.81315937 3.01885039 -5 1 C-3 0 -3 0 0 0 Z " fill="#573148" transform="translate(341,240)"/>
<path d="M0 0 C0.33 0.99 0.66 1.98 1 3 C3.01508358 3.73323796 3.01508358 3.73323796 5 4 C1.91190305 5.76462683 0.76687864 6 -3 6 C-3 5.34 -3 4.68 -3 4 C-3.99 3.67 -4.98 3.34 -6 3 C-4 2 -2 1 0 0 Z " fill="#593752" transform="translate(827,126)"/>
<path d="M0 0 C1.65 0 3.3 0 5 0 C4.67 1.98 4.34 3.96 4 6 C2.68 5.67 1.36 5.34 0 5 C0 3.35 0 1.7 0 0 Z " fill="#754E63" transform="translate(968,102)"/>
<path d="M0 0 C0.99 0.33 1.98 0.66 3 1 C2.875 3.25 2.875 3.25 2 6 C-1.0625 8.3125 -1.0625 8.3125 -4 10 C-4.66 9.01 -5.32 8.02 -6 7 C-4.02 6.34 -2.04 5.68 0 5 C0 3.35 0 1.7 0 0 Z " fill="#532C45" transform="translate(1016,731)"/>
<path d="M0 0 C0.33 0.99 0.66 1.98 1 3 C-0.375 4.5 -0.375 4.5 -2 6 C-2.66 6 -3.32 6 -4 6 C-4.66 7.32 -5.32 8.64 -6 10 C-6 6.36672806 -5.04413589 4.95264073 -3 2 C-2.01 1.34 -1.02 0.68 0 0 Z " fill="#5B344B" transform="translate(1319,734)"/>
<path d="M0 0 C0.99 0.495 0.99 0.495 2 1 C2 1.66 2 2.32 2 3 C3.32 2.67 4.64 2.34 6 2 C5.34 3.98 4.68 5.96 4 8 C3.67 7.34 3.34 6.68 3 6 C2.01 5.67 1.02 5.34 0 5 C0 3.35 0 1.7 0 0 Z " fill="#58324D" transform="translate(1343,437)"/>
<path d="M0 0 C0.99 0 1.98 0 3 0 C2.67 1.98 2.34 3.96 2 6 C1.38125 6.144375 0.7625 6.28875 0.125 6.4375 C-2.03258322 6.93152225 -2.03258322 6.93152225 -4 8 C-2.66666667 5.33333333 -1.33333333 2.66666667 0 0 Z " fill="#523049" transform="translate(688,432)"/>
<path d="M0 0 C0.33 0 0.66 0 1 0 C1.66 2.97 2.32 5.94 3 9 C2.34 9 1.68 9 1 9 C0.67 10.32 0.34 11.64 0 13 C-0.19466332 11.20909747 -0.38051213 9.41723495 -0.5625 7.625 C-0.66691406 6.62726563 -0.77132812 5.62953125 -0.87890625 4.6015625 C-1 2 -1 2 0 0 Z " fill="#55334A" transform="translate(242,139)"/>
<path d="M0 0 C1.32 0 2.64 0 4 0 C4 1.65 4 3.3 4 5 C5.98 4.34 7.96 3.68 10 3 C8.8125 4.5625 8.8125 4.5625 7 6 C4.3125 5.6875 4.3125 5.6875 2 5 C2 4.01 2 3.02 2 2 C1.34 2 0.68 2 0 2 C0 1.34 0 0.68 0 0 Z " fill="#56344D" transform="translate(716,432)"/>
<path d="M0 0 C3.3 0.33 6.6 0.66 10 1 C10 1.99 10 2.98 10 4 C6.7 3.34 3.4 2.68 0 2 C0 1.34 0 0.68 0 0 Z " fill="#6C465D" transform="translate(344,179)"/>
<path d="M0 0 C-1 2 -1 2 -4.3125 3.1875 C-7.57562063 3.90649268 -8.99282882 4.20286847 -12 3 C-7.77050005 0.58314288 -4.87664009 -0.34833144 0 0 Z " fill="#6D475F" transform="translate(341,149)"/>
<path d="M0 0 C0 2.64 0 5.28 0 8 C-1.32 7.67 -2.64 7.34 -4 7 C-4.1875 4.625 -4.1875 4.625 -4 2 C-1 0 -1 0 0 0 Z " fill="#5A324A" transform="translate(1344,548)"/>
<path d="M0 0 C0.99 0 1.98 0 3 0 C3.33 2.31 3.66 4.62 4 7 C3.34 7 2.68 7 2 7 C1.01 5.02 0.02 3.04 -1 1 C-0.67 0.67 -0.34 0.34 0 0 Z " fill="#57334E" transform="translate(1348,444)"/>
<path d="M0 0 C1.52519276 0.08937803 3.04681929 0.24537146 4.5625 0.4375 C5.80193359 0.59025391 5.80193359 0.59025391 7.06640625 0.74609375 C7.70449219 0.82988281 8.34257812 0.91367188 9 1 C5.66688525 2.7824918 2.75519057 3.48792856 -1 4 C-1 1 -1 1 0 0 Z " fill="#6C465D" transform="translate(319,163)"/>
<path d="M0 0 C0.99 0 1.98 0 3 0 C3 2.31 3 4.62 3 7 C2.01 7 1.02 7 0 7 C-0.38133299 5.0085944 -0.71325582 3.00720923 -1 1 C-0.67 0.67 -0.34 0.34 0 0 Z " fill="#56334B" transform="translate(338,96)"/>
<path d="M0 0 C-1.39332574 3.36720387 -2.9789286 4.9859524 -6 7 C-6 5.68 -6 4.36 -6 3 C-2.78571429 0 -2.78571429 0 0 0 Z " fill="#734B64" transform="translate(241,488)"/>
<path d="M0 0 C2.67927341 4.01891012 2.15601248 6.24161923 2 11 C1.01 10.34 0.02 9.68 -1 9 C-0.67 6.03 -0.34 3.06 0 0 Z " fill="#6B4962" transform="translate(1339,405)"/>
<path d="M0 0 C0.33 0 0.66 0 1 0 C1.20086443 3.71599191 1.1519437 4.77208445 -1 8 C-1.33 8.99 -1.66 9.98 -2 11 C-2.33 11 -2.66 11 -3 11 C-2.53199289 6.94393835 -2.12046792 3.53411321 0 0 Z " fill="#5F364A" transform="translate(767,382)"/>
<path d="M0 0 C0.66 0 1.32 0 2 0 C2 0.66 2 1.32 2 2 C3.32 2.66 4.64 3.32 6 4 C6 4.66 6 5.32 6 6 C3.69 5.67 1.38 5.34 -1 5 C-0.67 3.35 -0.34 1.7 0 0 Z " fill="#57314A" transform="translate(376,194)"/>
<path d="M0 0 C2.64 0.33 5.28 0.66 8 1 C7.67 1.66 7.34 2.32 7 3 C4.67843403 3.40729228 2.3431213 3.74438677 0 4 C-0.33 3.34 -0.66 2.68 -1 2 C-0.67 1.34 -0.34 0.68 0 0 Z " fill="#59344D" transform="translate(393,159)"/>
<path d="M0 0 C-0.6875 1.9375 -0.6875 1.9375 -2 4 C-4.625 4.75 -4.625 4.75 -7 5 C-6.1875 3.0625 -6.1875 3.0625 -5 1 C-2 0 -2 0 0 0 Z " fill="#5A344D" transform="translate(338,131)"/>
<path d="M0 0 C-0.66 0 -1.32 0 -2 0 C-2 1.32 -2 2.64 -2 4 C-3.32 4 -4.64 4 -6 4 C-6 3.34 -6 2.68 -6 2 C-6.66 1.67 -7.32 1.34 -8 1 C-3.375 -1.125 -3.375 -1.125 0 0 Z " fill="#55334D" transform="translate(835,122)"/>
<path d="M0 0 C1.485 0.99 1.485 0.99 3 2 C3 2.99 3 3.98 3 5 C2.34 5 1.68 5 1 5 C0.67 5.66 0.34 6.32 0 7 C-1 6 -1 6 -1.125 3.5 C-1 1 -1 1 0 0 Z " fill="#5E344C" transform="translate(1354,619)"/>
<path d="M0 0 C0.66 0.66 1.32 1.32 2 2 C-0.31 4.97 -2.62 7.94 -5 11 C-5.33 10.34 -5.66 9.68 -6 9 C-4.02 6.03 -2.04 3.06 0 0 Z " fill="#5B3146" transform="translate(878,594)"/>
<path d="M0 0 C1.32 0.66 2.64 1.32 4 2 C1.94766315 4.2477975 0.99332739 5.0022242 -2 6 C-1.34 4.02 -0.68 2.04 0 0 Z " fill="#583146" transform="translate(247,239)"/>
<path d="M0 0 C-3.75 3 -3.75 3 -6 3 C-6.33 3.66 -6.66 4.32 -7 5 C-7.33 3.35 -7.66 1.7 -8 0 C-2.25 -1.125 -2.25 -1.125 0 0 Z " fill="#57334D" transform="translate(291,109)"/>
<path d="M0 0 C1.98 0.495 1.98 0.495 4 1 C3.34 2.32 2.68 3.64 2 5 C1.01 4.67 0.02 4.34 -1 4 C-0.67 2.68 -0.34 1.36 0 0 Z " fill="#56344D" transform="translate(307,32)"/>
<path d="M0 0 C2.475 0.99 2.475 0.99 5 2 C3.625 4 3.625 4 2 6 C1.34 6 0.68 6 0 6 C0 4.02 0 2.04 0 0 Z " fill="#5C354A" transform="translate(312,272)"/>
<path d="M0 0 C1 3 1 3 0.0625 5.1875 C-0.4634375 6.0846875 -0.4634375 6.0846875 -1 7 C-1.66 5.68 -2.32 4.36 -3 3 C-2.01 2.01 -1.02 1.02 0 0 Z M-5 5 C-4.01 5.495 -4.01 5.495 -3 6 C-3.99 6.495 -3.99 6.495 -5 7 C-5 6.34 -5 5.68 -5 5 Z " fill="#5F2E44" transform="translate(357,383)"/>
<path d="M0 0 C0.33 1.32 0.66 2.64 1 4 C0.34 4 -0.32 4 -1 4 C-1.33 5.32 -1.66 6.64 -2 8 C-2.66 7.67 -3.32 7.34 -4 7 C-2.92598892 4.08482708 -2.22189824 2.22189824 0 0 Z " fill="#5A344B" transform="translate(231,264)"/>
<path d="M0 0 C2.99324263 1.0975223 3.84610901 1.67682892 5.25 4.625 C5.4975 5.40875 5.745 6.1925 6 7 C3.00675737 5.9024777 2.15389099 5.32317108 0.75 2.375 C0.5025 1.59125 0.255 0.8075 0 0 Z " fill="#5A3750" transform="translate(1245,177)"/>
<path d="M0 0 C2.4375 0.8125 2.4375 0.8125 5 2 C5.33 2.99 5.66 3.98 6 5 C4.35 5.33 2.7 5.66 1 6 C0.67 4.02 0.34 2.04 0 0 Z " fill="#5A3851" transform="translate(1191,134)"/>
<path d="M0 0 C0.99 0.33 1.98 0.66 3 1 C2.01 2.98 1.02 4.96 0 7 C-0.66 5.68 -1.32 4.36 -2 3 C-1.34 2.01 -0.68 1.02 0 0 Z " fill="#5A344B" transform="translate(287,132)"/>
<path d="M0 0 C1.42944945 2.35438733 2.08661261 3.48032433 1.625 6.25 C1.41875 6.8275 1.2125 7.405 1 8 C0.34 7.67 -0.32 7.34 -1 7 C-1.04254356 5.00045254 -1.04080783 2.99958364 -1 1 C-0.67 0.67 -0.34 0.34 0 0 Z " fill="#512C46" transform="translate(841,120)"/>
</svg>
